<?xml version="1.0" encoding="utf-8"?>
<!-- Generator: Adobe Illustrator 24.0.1, SVG Export Plug-In . SVG Version: 6.00 Build 0)  -->
<svg version="1.1" id="Слой_1" xmlns="http://www.w3.org/2000/svg" xmlns:xlink="http://www.w3.org/1999/xlink" x="0px" y="0px"
	 viewBox="0 0 296 48" style="enable-background:new 0 0 296 48;" xml:space="preserve">
<g>
	
		<linearGradient id="SVGID_1_" gradientUnits="userSpaceOnUse" x1="1.4221" y1="2.0517" x2="1.4221" y2="3.0517" gradientTransform="matrix(296 0 0 -7 -272.9449 62.3622)">
		<stop  offset="0" style="stop-color:#424672"/>
		<stop  offset="1" style="stop-color:#5B619E"/>
	</linearGradient>
	<path style="fill-rule:evenodd;clip-rule:evenodd;fill:url(#SVGID_1_);" d="M3.5,41h289c1.9,0,3.5,1.6,3.5,3.5s-1.6,3.5-3.5,3.5
		H3.5C1.6,48,0,46.4,0,44.5S1.6,41,3.5,41z"/>
</g>
<g>
	<path d="M25.3,21.7l3-16.5h6.3L29,31.5h-6.6l-3.5-15l-3.5,15H8.9L3.3,5.2h6.3l3,16.5l3.6-16.5h5.4L25.3,21.7z"/>
	<path d="M35.4,21.6c0-2,0.4-3.7,1.1-5.2c0.8-1.5,1.8-2.7,3.3-3.5c1.4-0.8,3.1-1.2,5-1.2c2.9,0,5.2,0.9,6.9,2.7
		c1.7,1.8,2.5,4.3,2.5,7.4V22c0,3-0.8,5.5-2.5,7.3c-1.7,1.8-4,2.7-6.9,2.7c-2.8,0-5-0.8-6.7-2.5c-1.7-1.7-2.6-3.9-2.7-6.8L35.4,21.6
		z M41.5,22c0,1.8,0.3,3.1,0.8,4c0.6,0.8,1.4,1.3,2.5,1.3c2.2,0,3.3-1.7,3.3-5v-0.6c0-3.5-1.1-5.3-3.4-5.3c-2,0-3.1,1.5-3.3,4.5
		L41.5,22z"/>
	<path d="M68.8,17.5l-2-0.1c-1.9,0-3.1,0.6-3.7,1.8v12.4H57V12h5.7l0.2,2.5c1-1.9,2.5-2.9,4.3-2.9c0.7,0,1.2,0.1,1.7,0.2L68.8,17.5z
		"/>
	<path d="M78.9,24.2L77.1,26v5.6H71V3.8h6.1v14.7l0.6-0.8l4.6-5.7h7.3l-6.8,8l7.3,11.5h-7L78.9,24.2z"/>
	<path d="M117,20.4h-10v6.3h11.8v4.9h-18.1V5.2h18.2v4.9h-11.8v5.5h10V20.4z"/>
	<path d="M125.1,17.7c-0.7-1-1.3-2-1.7-2.9c-0.4-0.9-0.6-1.9-0.6-2.8c0-2.1,0.7-3.8,2.1-5.1c1.4-1.3,3.2-2,5.4-2
		c2,0,3.6,0.6,4.9,1.8c1.3,1.2,2,2.7,2,4.5c0,2.2-1.2,4.2-3.7,6l-1.4,1l4,4.6c0.7-1.3,1-2.8,1-4.4h5.1c0,3.6-0.8,6.4-2.5,8.5l4,4.6
		H137l-1.2-1.4c-1,0.6-2,1-3.1,1.3c-1.1,0.3-2.2,0.4-3.6,0.4c-2.6,0-4.7-0.7-6.3-2c-1.6-1.4-2.3-3.2-2.3-5.4c0-1.2,0.3-2.3,0.9-3.3
		C122,20.2,123.2,19,125.1,17.7L125.1,17.7z M129.5,27.2c1.1,0,2.1-0.2,3-0.7l-4.7-5.4l-0.2,0.1c-0.7,0.8-1,1.8-1,2.9
		c0,0.9,0.3,1.6,0.8,2.2C127.9,26.9,128.6,27.2,129.5,27.2z M128,11.9c0,0.8,0.5,1.9,1.4,3.1l1.2-0.8c0.6-0.4,1-0.7,1.2-1.1
		c0.3-0.4,0.4-0.9,0.4-1.5c0-0.6-0.2-1-0.6-1.4c-0.4-0.4-0.9-0.6-1.4-0.6c-0.7,0-1.2,0.2-1.6,0.6C128.2,10.6,128,11.2,128,11.9z"/>
	<path d="M168.6,18.9c0,2.6-0.5,4.8-1.4,6.8c-1,2-2.3,3.5-4.1,4.6c-1.8,1.1-3.7,1.6-6,1.6s-4.2-0.5-6-1.5c-1.7-1-3.1-2.5-4.1-4.4
		c-1-1.9-1.5-4.1-1.5-6.6v-1.5c0-2.6,0.5-4.9,1.4-6.8c0.9-2,2.3-3.5,4.1-4.6c1.8-1.1,3.8-1.6,6-1.6c2.2,0,4.2,0.5,6,1.6
		c1.7,1.1,3.1,2.6,4.1,4.5c1,2,1.5,4.2,1.5,6.7V18.9z M162.2,17.8c0-2.6-0.4-4.6-1.3-6c-0.9-1.4-2.1-2-3.7-2c-3.2,0-4.9,2.4-5,7.2
		l0,1.9c0,2.6,0.4,4.6,1.3,5.9c0.9,1.4,2.1,2.1,3.8,2.1c1.6,0,2.8-0.7,3.7-2s1.3-3.3,1.3-5.9V17.8z"/>
	<path d="M197.4,20.4h-10v6.3h11.8v4.9h-18.1V5.2h18.2v4.9h-11.8v5.5h10V20.4z"/>
	<path d="M208.9,24.3L212,12h6.4L212,31.5h-6.2L199.4,12h6.4L208.9,24.3z"/>
	<path d="M232,17.5l-2-0.1c-1.9,0-3.1,0.6-3.7,1.8v12.4h-6.1V12h5.7l0.2,2.5c1-1.9,2.5-2.9,4.3-2.9c0.7,0,1.2,0.1,1.7,0.2L232,17.5z
		"/>
	<path d="M232.8,21.6c0-2,0.4-3.7,1.1-5.2c0.8-1.5,1.8-2.7,3.3-3.5c1.4-0.8,3.1-1.2,5-1.2c2.9,0,5.2,0.9,6.9,2.7
		c1.7,1.8,2.5,4.3,2.5,7.4V22c0,3-0.8,5.5-2.5,7.3c-1.7,1.8-4,2.7-6.9,2.7c-2.8,0-5-0.8-6.7-2.5c-1.7-1.7-2.6-3.9-2.7-6.8
		L232.8,21.6z M238.9,22c0,1.8,0.3,3.1,0.8,4s1.4,1.3,2.5,1.3c2.2,0,3.3-1.7,3.3-5v-0.6c0-3.5-1.1-5.3-3.4-5.3c-2,0-3.1,1.5-3.3,4.5
		L238.9,22z"/>
	<path d="M272.5,21.9c0,3-0.7,5.5-2.1,7.3c-1.4,1.8-3.2,2.7-5.5,2.7c-1.8,0-3.3-0.7-4.4-2V39h-6.1V12h5.7l0.2,1.8
		c1.2-1.4,2.7-2.2,4.6-2.2c2.4,0,4.3,0.9,5.6,2.7c1.3,1.8,2,4.2,2,7.3V21.9z M266.4,21.5c0-3.5-1-5.2-3-5.2c-1.4,0-2.4,0.5-2.9,1.6
		v7.7c0.5,1.1,1.5,1.6,2.9,1.6c1.9,0,2.9-1.7,3-5V21.5z"/>
	<path d="M286.2,31.5c-0.2-0.4-0.4-1-0.6-1.8c-1.1,1.4-2.7,2.1-4.7,2.1c-1.8,0-3.4-0.6-4.7-1.7c-1.3-1.1-1.9-2.5-1.9-4.2
		c0-2.1,0.8-3.7,2.3-4.8c1.6-1.1,3.8-1.6,6.8-1.6h1.9v-1c0-1.8-0.8-2.7-2.3-2.7c-1.4,0-2.2,0.7-2.2,2.1h-6.1c0-1.9,0.8-3.4,2.4-4.6
		c1.6-1.2,3.7-1.8,6.2-1.8c2.5,0,4.5,0.6,5.9,1.8c1.4,1.2,2.2,2.9,2.2,5v8.7c0,1.8,0.3,3.2,0.8,4.1v0.3H286.2z M282.4,27.6
		c0.8,0,1.4-0.2,1.9-0.5c0.5-0.3,0.9-0.7,1.1-1.1v-3.1h-1.8c-2.1,0-3.2,1-3.2,2.9c0,0.6,0.2,1,0.6,1.3
		C281.3,27.4,281.8,27.6,282.4,27.6z"/>
</g>
</svg>
