<?xml version="1.0" encoding="utf-8"?>
<!-- Generator: Adobe Illustrator 24.0.1, SVG Export Plug-In . SVG Version: 6.00 Build 0)  -->
<svg version="1.1" id="Слой_1" xmlns="http://www.w3.org/2000/svg" xmlns:xlink="http://www.w3.org/1999/xlink" x="0px" y="0px"
	 viewBox="0 0 128 128" enable-background="new 0 0 128 128" xml:space="preserve">
<linearGradient id="SVGID_1_" gradientUnits="userSpaceOnUse" x1="64.05" y1="5.4" x2="64.05" y2="46.6" gradientTransform="matrix(1 0 0 -1 0 130)">
	<stop  offset="0" style="stop-color:#424672"/>
	<stop  offset="1" style="stop-color:#5B619E"/>
</linearGradient>
<path fill-rule="evenodd" clip-rule="evenodd" fill="url(#SVGID_1_)" d="M121.4,83.4H6.7c8.1,23.9,30.7,41.2,57.4,41.2
	C90.7,124.6,113.3,107.4,121.4,83.4z"/>
<path fill-rule="evenodd" clip-rule="evenodd" fill="#222222" d="M121.4,83.4c2.1-6.1,3.2-12.6,3.2-19.4c0-33.5-27.1-60.6-60.6-60.6
	S3.4,30.5,3.4,64c0,6.8,1.1,13.3,3.2,19.4H121.4z"/>
<g>
	<path fill="#FFFFFF" d="M77.2,56.8l6.3-34.6h13.2L85,77.4H71.2l-7.4-31.5l-7.2,31.5H42.8L31,22.2h13.2l6.3,34.6l7.6-34.6h11.3
		L77.2,56.8z"/>
</g>
</svg>
