<?xml version="1.0" encoding="utf-8"?>
<!-- Generator: Adobe Illustrator 24.0.1, SVG Export Plug-In . SVG Version: 6.00 Build 0)  -->
<svg version="1.1" id="Слой_1" xmlns="http://www.w3.org/2000/svg" xmlns:xlink="http://www.w3.org/1999/xlink" x="0px" y="0px"
	 viewBox="0 0 128 128" style="enable-background:new 0 0 128 128;" xml:space="preserve">
<style type="text/css">
	.st0{fill-rule:evenodd;clip-rule:evenodd;fill:url(#SVGID_1_);}
	.st1{fill-rule:evenodd;clip-rule:evenodd;fill:#FFFFFF;}
</style>
<linearGradient id="SVGID_1_" gradientUnits="userSpaceOnUse" x1="64.05" y1="5.4" x2="64.05" y2="46.6" gradientTransform="matrix(1 0 0 -1 0 130)">
	<stop  offset="0" style="stop-color:#424672"/>
	<stop  offset="1" style="stop-color:#5B619E"/>
</linearGradient>
<path class="st0" d="M121.4,83.4H6.7c8.1,23.9,30.7,41.2,57.4,41.2C90.7,124.6,113.3,107.4,121.4,83.4z"/>
<path class="st1" d="M121.4,83.4c2.1-6.1,3.2-12.6,3.2-19.4c0-33.5-27.1-60.6-60.6-60.6S3.4,30.5,3.4,64c0,6.8,1.1,13.3,3.2,19.4
	H121.4z"/>
<g>
	<path d="M77.2,56.8l6.3-34.6h13.2L85,77.4H71.2l-7.4-31.5l-7.2,31.5H42.8L31,22.2h13.2l6.3,34.6l7.6-34.6h11.3L77.2,56.8z"/>
</g>
</svg>
