<?xml version="1.0" standalone="no"?>
<!DOCTYPE svg PUBLIC "-//W3C//DTD SVG 20010904//EN"
 "http://www.w3.org/TR/2001/REC-SVG-20010904/DTD/svg10.dtd">
<svg version="1.0" xmlns="http://www.w3.org/2000/svg"
 width="700.000000pt" height="700.000000pt" viewBox="0 0 700.000000 700.000000"
 preserveAspectRatio="xMidYMid meet">
<metadata>
Created by potrace 1.11, written by Peter Selinger 2001-2013
</metadata>
<g transform="translate(0.000000,700.000000) scale(0.100000,-0.100000)"
fill="#000000" stroke="none">
<path d="M1700 5777 c0 -10 613 -2892 635 -2984 l5 -23 378 0 378 0 194 850
c107 467 197 846 201 842 6 -6 399 -1667 399 -1686 0 -3 171 -6 379 -6 l380 0
11 53 c6 28 149 705 319 1502 169 798 305 1453 301 1458 -3 4 -165 6 -360 5
l-353 -3 -173 -940 c-94 -517 -174 -933 -177 -925 -3 8 -99 429 -212 935 -114
506 -210 923 -214 928 -4 4 -144 6 -311 5 l-303 -3 -206 -938 c-123 -561 -209
-931 -213 -920 -4 10 -82 429 -173 932 -91 503 -168 918 -171 923 -3 4 -165 8
-360 8 -285 0 -354 -3 -354 -13z"/>
<path d="M375 2423 c4 -10 15 -40 25 -68 26 -76 98 -240 142 -330 350 -699
951 -1266 1663 -1570 836 -357 1782 -354 2620 9 250 108 534 281 760 462 349
280 668 680 878 1099 54 110 167 381 167 403 0 9 -747 12 -3131 12 -2978 0
-3131 -1 -3124 -17z"/>
</g>
</svg>
