<?xml version="1.0" encoding="utf-8"?>
<!-- Generator: Adobe Illustrator 24.0.1, SVG Export Plug-In . SVG Version: 6.00 Build 0)  -->
<svg version="1.1" id="Слой_1" xmlns="http://www.w3.org/2000/svg" xmlns:xlink="http://www.w3.org/1999/xlink" x="0px" y="0px"
	 viewBox="0 0 300 400" style="enable-background:new 0 0 300 400;" xml:space="preserve">
<linearGradient id="SVGID_1_" gradientUnits="userSpaceOnUse" x1="150.0737" y1="401.3526" x2="150.0737" y2="-0.7">
	<stop  offset="0" style="stop-color:#424672"/>
	<stop  offset="1" style="stop-color:#5B619E"/>
</linearGradient>
<path style="fill:none;stroke:url(#SVGID_1_);stroke-width:13;stroke-miterlimit:10;" d="M274.3,394.9H25.8c-11.1,0-20-9-20-20v-349
	c0-11.1,9-20,20-20h248.5c11.1,0,20,9,20,20v349C294.3,385.9,285.4,394.9,274.3,394.9z"/>
<g>
	<g>
		<linearGradient id="SVGID_2_" gradientUnits="userSpaceOnUse" x1="214.2523" y1="119.6998" x2="214.2523" y2="47.5358">
			<stop  offset="0" style="stop-color:#424672"/>
			<stop  offset="1" style="stop-color:#5B619E"/>
		</linearGradient>
		<path style="fill:url(#SVGID_2_);" d="M248.3,49.6c2.8,2.8,2.8,7.3,0,10.1l-60,60c-1.4-1.7-2.9-3.4-4.5-5c-1.8-1.8-3.7-3.5-5.7-5
			l60.1-60.1C241,46.8,245.5,46.8,248.3,49.6z"/>
		<linearGradient id="SVGID_3_" gradientUnits="userSpaceOnUse" x1="145.9233" y1="199.7835" x2="145.9233" y2="104.1786">
			<stop  offset="0" style="stop-color:#424672"/>
			<stop  offset="1" style="stop-color:#5B619E"/>
		</linearGradient>
		<path style="fill:url(#SVGID_3_);" d="M177.7,120.2c-21.3-21.3-55.9-21.3-77.3,0l-2.3,2.3l77.3,77.3l2.3-2.3
			C199.1,176.1,199.1,141.5,177.7,120.2z"/>
		<linearGradient id="SVGID_4_" gradientUnits="userSpaceOnUse" x1="107.9261" y1="248.2725" x2="107.9261" y2="131.6835">
			<stop  offset="0" style="stop-color:#424672"/>
			<stop  offset="1" style="stop-color:#5B619E"/>
		</linearGradient>
		<path style="fill:url(#SVGID_4_);" d="M52.8,154.6l34.3-22.9l79.1,79.1l-22.9,34.3c-1.2,1.8-3.1,2.9-5.2,3.1
			c-2.1,0.2-4.2-0.5-5.7-2.1l-80.6-80.6c-1.5-1.5-2.3-3.6-2.1-5.7C49.9,157.7,51,155.8,52.8,154.6z"/>
	</g>
</g>
<g>
	<linearGradient id="SVGID_5_" gradientUnits="userSpaceOnUse" x1="37.2954" y1="345.4639" x2="37.2954" y2="323.4248">
		<stop  offset="0" style="stop-color:#424672"/>
		<stop  offset="1" style="stop-color:#5B619E"/>
	</linearGradient>
	<path style="fill:url(#SVGID_5_);" d="M46.6,345.5h-5.3v-17.9h-7.9v17.9H28v-22h18.5V345.5z"/>
	<linearGradient id="SVGID_6_" gradientUnits="userSpaceOnUse" x1="58.5391" y1="345.4639" x2="58.5391" y2="323.4248">
		<stop  offset="0" style="stop-color:#424672"/>
		<stop  offset="1" style="stop-color:#5B619E"/>
	</linearGradient>
	<path style="fill:url(#SVGID_6_);" d="M55.2,338v7.5h-5.3v-22h8.8c1.7,0,3.2,0.3,4.5,0.9c1.3,0.6,2.3,1.5,3,2.6
		c0.7,1.1,1.1,2.4,1.1,3.9c0,2.1-0.8,3.9-2.3,5.2c-1.5,1.3-3.7,1.9-6.3,1.9H55.2z M55.2,333.9h3.5c1,0,1.8-0.3,2.4-0.8
		c0.5-0.5,0.8-1.2,0.8-2.2c0-1-0.3-1.9-0.8-2.5c-0.6-0.6-1.3-0.9-2.3-0.9h-3.5V333.9z"/>
	<linearGradient id="SVGID_7_" gradientUnits="userSpaceOnUse" x1="79.0117" y1="345.4639" x2="79.0117" y2="323.4248">
		<stop  offset="0" style="stop-color:#424672"/>
		<stop  offset="1" style="stop-color:#5B619E"/>
	</linearGradient>
	<path style="fill:url(#SVGID_7_);" d="M83,323.4h5.3v22H83v-13.9l-7.9,13.9h-5.3v-22h5.3v13.9L83,323.4z"/>
	<linearGradient id="SVGID_8_" gradientUnits="userSpaceOnUse" x1="99.9683" y1="345.4639" x2="99.9683" y2="323.4248">
		<stop  offset="0" style="stop-color:#424672"/>
		<stop  offset="1" style="stop-color:#5B619E"/>
	</linearGradient>
	<path style="fill:url(#SVGID_8_);" d="M106.4,327.5h-9.6v3.5h2.7c1.7,0,3.3,0.3,4.6,0.9s2.4,1.4,3.1,2.5c0.7,1.1,1.1,2.3,1.1,3.7
		c0,2.2-0.8,3.9-2.4,5.3c-1.6,1.4-3.8,2-6.5,2h-8v-22h14.9V327.5z M96.9,335.1v6.3h2.7c1.1,0,1.9-0.3,2.6-0.9
		c0.6-0.6,0.9-1.4,0.9-2.3c0-0.9-0.3-1.6-0.9-2.2c-0.6-0.6-1.5-0.8-2.6-0.8H96.9z"/>
	<linearGradient id="SVGID_9_" gradientUnits="userSpaceOnUse" x1="119.8506" y1="345.4639" x2="119.8506" y2="323.4248">
		<stop  offset="0" style="stop-color:#424672"/>
		<stop  offset="1" style="stop-color:#5B619E"/>
	</linearGradient>
	<path style="fill:url(#SVGID_9_);" d="M123.8,323.4h5.3v22h-5.3v-13.9l-7.9,13.9h-5.3v-22h5.3v13.9L123.8,323.4z"/>
	<linearGradient id="SVGID_10_" gradientUnits="userSpaceOnUse" x1="141.0352" y1="345.4639" x2="141.0352" y2="323.4248">
		<stop  offset="0" style="stop-color:#424672"/>
		<stop  offset="1" style="stop-color:#5B619E"/>
	</linearGradient>
	<path style="fill:url(#SVGID_10_);" d="M137.7,338v7.5h-5.3v-22h8.8c1.7,0,3.2,0.3,4.5,0.9c1.3,0.6,2.3,1.5,3,2.6
		c0.7,1.1,1.1,2.4,1.1,3.9c0,2.1-0.8,3.9-2.3,5.2c-1.5,1.3-3.7,1.9-6.3,1.9H137.7z M137.7,333.9h3.5c1,0,1.8-0.3,2.4-0.8
		c0.5-0.5,0.8-1.2,0.8-2.2c0-1-0.3-1.9-0.8-2.5c-0.6-0.6-1.3-0.9-2.3-0.9h-3.5V333.9z"/>
	<linearGradient id="SVGID_11_" gradientUnits="userSpaceOnUse" x1="158.7449" y1="345.4639" x2="158.7449" y2="323.4248">
		<stop  offset="0" style="stop-color:#424672"/>
		<stop  offset="1" style="stop-color:#5B619E"/>
	</linearGradient>
	<path style="fill:url(#SVGID_11_);" d="M162.4,341.3h-7.3l-1.3,4.1h-5.7l8.1-22h5l8.1,22h-5.7L162.4,341.3z M156.4,337.2h4.7
		l-2.4-7.6L156.4,337.2z"/>
	<linearGradient id="SVGID_12_" gradientUnits="userSpaceOnUse" x1="179.9287" y1="345.4639" x2="179.9287" y2="323.4248">
		<stop  offset="0" style="stop-color:#424672"/>
		<stop  offset="1" style="stop-color:#5B619E"/>
	</linearGradient>
	<path style="fill:url(#SVGID_12_);" d="M189.8,323.4v22h-5.3v-17.9h-4.9l-0.4,7.4c-0.2,2.6-0.5,4.6-1.1,6.1
		c-0.6,1.5-1.3,2.6-2.4,3.3c-1,0.7-2.4,1.1-4.2,1.1h-1.4v-4.1l0.7-0.1c1.1-0.2,1.8-0.8,2.3-1.9c0.5-1.1,0.8-3.1,0.9-5.8l0.4-10.1
		H189.8z"/>
	<linearGradient id="SVGID_13_" gradientUnits="userSpaceOnUse" x1="201.5288" y1="345.4639" x2="201.5288" y2="323.4248">
		<stop  offset="0" style="stop-color:#424672"/>
		<stop  offset="1" style="stop-color:#5B619E"/>
	</linearGradient>
	<path style="fill:url(#SVGID_13_);" d="M198.4,331h2.7c1.7,0,3.3,0.3,4.6,0.9s2.4,1.4,3.1,2.5c0.7,1.1,1.1,2.3,1.1,3.7
		c0,2.2-0.8,3.9-2.4,5.3c-1.6,1.4-3.8,2-6.5,2h-8v-22h5.3V331z M198.4,335.1v6.3h2.7c1.1,0,1.9-0.3,2.6-0.9c0.6-0.6,0.9-1.4,0.9-2.3
		c0-0.9-0.3-1.6-0.9-2.2c-0.6-0.6-1.5-0.8-2.6-0.8H198.4z"/>
	<linearGradient id="SVGID_14_" gradientUnits="userSpaceOnUse" x1="221.6001" y1="345.4639" x2="221.6001" y2="323.4248">
		<stop  offset="0" style="stop-color:#424672"/>
		<stop  offset="1" style="stop-color:#5B619E"/>
	</linearGradient>
	<path style="fill:url(#SVGID_14_);" d="M230.8,345.5h-5.3v-9.2h-7.8v9.2h-5.3v-22h5.3v8.7h7.8v-8.7h5.3V345.5z"/>
	<linearGradient id="SVGID_15_" gradientUnits="userSpaceOnUse" x1="243.1392" y1="345.4639" x2="243.1392" y2="323.4248">
		<stop  offset="0" style="stop-color:#424672"/>
		<stop  offset="1" style="stop-color:#5B619E"/>
	</linearGradient>
	<path style="fill:url(#SVGID_15_);" d="M247.1,323.4h5.3v22h-5.3v-13.9l-7.9,13.9h-5.3v-22h5.3v13.9L247.1,323.4z"/>
	<linearGradient id="SVGID_16_" gradientUnits="userSpaceOnUse" x1="265.0127" y1="345.4639" x2="265.0127" y2="323.4248">
		<stop  offset="0" style="stop-color:#424672"/>
		<stop  offset="1" style="stop-color:#5B619E"/>
	</linearGradient>
	<path style="fill:url(#SVGID_16_);" d="M263.4,336.7h-2.5v8.7h-5.3v-22h5.3v8.5h2l4.2-8.5h6.4l-6.1,10.2l6.8,11.9h-6.3L263.4,336.7
		z"/>
</g>
</svg>
