<svg xmlns="http://www.w3.org/2000/svg" xmlns:xlink="http://www.w3.org/1999/xlink" viewBox="0 0 184.58318 183.51424">
  <defs>
    <linearGradient id="f899b1d0-bd1a-40b5-afde-7940d4a18429" data-name="Безымянный градиент 13" x1="92.29159" x2="92.29159" y2="183.51424" gradientUnits="userSpaceOnUse">
      <stop offset="0" stop-color="#5b619e"/>
      <stop offset="1" stop-color="#424672"/>
    </linearGradient>
  </defs>
  <title>Ресурс 6</title>
  <g id="b512ae59-a951-47a4-9a32-40aa6dd51053" data-name="Слой 2">
    <g id="ed61c8b9-d5e4-43e0-b5d1-23c5fe62a367" data-name="Слой 1">
      <path d="M92.292,0,89.31168,9.16864H79.65132l7.8105,5.66815L84.4815,24.03548l7.80971-5.66894,7.80893,5.66815L97.1214,14.83758l7.77889-5.66893H95.27ZM52.46476,10.01845,49.486,19.21634H39.82566l7.80892,5.66815-2.97874,9.16944L52.43472,28.385l7.8105,5.66815L57.2649,24.88528l7.80971-5.66894H55.44509Zm79.6537,0-2.98033,9.19789h-9.66036l7.81051,5.66815L124.308,34.05393l7.80971-5.66894,7.80971,5.66815-2.98032-9.16786,7.80971-5.66894H135.0964ZM23.2821,40.1908l-2.97874,9.16864h-9.6319l7.78046,5.66815L15.47159,64.197l7.80972-5.66894L31.091,64.19624l-2.98033-9.16786,7.80972-5.66894H26.26005l-2.978-9.16864Zm137.99055,0-2.98033,9.16864H148.662l7.78046,5.6397-2.98033,9.1971,7.80971-5.66894,7.80971,5.66815-2.98032-9.16785,7.80971-5.66894h-9.66036l-2.978-9.16786ZM12.60985,79.12564,9.62953,88.29428H0l7.78046,5.66815-2.98032,9.16944,7.839-5.66973,7.78047,5.66973-2.98033-9.16865L25.249,88.29429H15.5886l-2.978-9.16865Zm159.33505,0-2.97875,9.16864h-9.6319l7.78045,5.66815-2.98032,9.16944,7.80971-5.66973,7.80971,5.66973-2.98033-9.14018,7.80971-5.69819h-9.66036l-2.97795-9.16786ZM23.2821,119.31644l-2.97874,9.16864h-9.6319l7.78046,5.66973-2.98033,9.19789,7.80972-5.66973L31.091,143.3527l-2.98033-9.19789,7.80972-5.66973H26.26005l-2.978-9.16864Zm137.99055,0-2.98033,9.16864H148.662l7.78046,5.66973-2.98033,9.19789,7.80971-5.66973,7.80971,5.66973-2.98032-9.19789,7.80971-5.66973h-9.66036l-2.978-9.16864ZM52.46476,148.17433l-2.98032,9.19789H39.82408l7.80971,5.66814-2.97874,9.16944,7.80892-5.66895,7.78046,5.66815-2.98032-9.16785,7.80971-5.66895H55.44509l-2.98032-9.19789Zm79.6529,0-2.98032,9.19789H119.477l7.8105,5.64047-2.98032,9.19711,7.80971-5.66895,7.80971,5.66815-2.98033-9.19631,7.80971-5.64047H135.0956l-2.97795-9.19789ZM92.29042,159.478l-2.97874,9.19789H79.65132l7.80971,5.64047-2.98032,9.19789,7.80971-5.66972,7.80892,5.66972-2.97874-9.19789,7.77889-5.64047H95.26917l-2.978-9.19789Z" fill="url(#f899b1d0-bd1a-40b5-afde-7940d4a18429)"/>
    </g>
  </g>
</svg>
