<svg xmlns="http://www.w3.org/2000/svg" xmlns:xlink="http://www.w3.org/1999/xlink" viewBox="0 0 149 183">
  <defs>
    <linearGradient id="bf7f004c-bcea-4e01-933e-acbc8bfeae8a" data-name="Безымянный градиент 13" x1="74.5" x2="74.5" y2="183" gradientUnits="userSpaceOnUse">
      <stop offset="0" stop-color="#5b619e"/>
      <stop offset="1" stop-color="#424672"/>
    </linearGradient>
    <linearGradient id="b53bfe29-dd2b-4152-8299-c42bf98cfc0b" x1="93.85797" y1="158.52562" x2="93.85797" y2="172.37752" xlink:href="#bf7f004c-bcea-4e01-933e-acbc8bfeae8a"/>
    <linearGradient id="ebc7101f-4c47-48b1-98c7-1c65a674bf46" x1="55.76575" y1="61.56366" x2="55.76575" y2="75.41557" xlink:href="#bf7f004c-bcea-4e01-933e-acbc8bfeae8a"/>
    <linearGradient id="fe6057cf-2d0a-4ee7-8fa1-2a5a12e0ade1" x1="93.85797" y1="61.56366" x2="93.85797" y2="75.41557" xlink:href="#bf7f004c-bcea-4e01-933e-acbc8bfeae8a"/>
    <linearGradient id="e522c075-e877-4dbf-952b-54e798debb10" x1="74.81224" y1="85.80448" x2="74.81224" y2="103.11869" xlink:href="#bf7f004c-bcea-4e01-933e-acbc8bfeae8a"/>
  </defs>
  <title>Ресурс 8</title>
  <g id="f8b1bd7e-0672-4356-8bcd-575f7b98d070" data-name="Слой 2">
    <g id="a187a9c9-834d-459e-b9eb-f31225a96031" data-name="Слой 1">
      <g>
        <path d="M114.71666,114H101.41552a48.43008,48.43008,0,0,0,21.48389-27.80947,20.7066,20.7066,0,0,0,1.88849-41.0961A48.34717,48.34717,0,0,0,76.52049,0h-3.4158A48.3227,48.3227,0,0,0,24.83585,45.0651a20.73911,20.73911,0,0,0,1.88813,41.154,48.36958,48.36958,0,0,0,21.485,27.78051H34.97929A35.08213,35.08213,0,0,0,0,148.97893v30.1998A3.8325,3.8325,0,0,0,3.82127,183h142.0744A3.10434,3.10434,0,0,0,149,179.89567V148.26661A34.10632,34.10632,0,0,0,114.71666,114ZM125,71.96926V51.63051a13.79651,13.79651,0,0,1-.36815,26.91018A48.70407,48.70407,0,0,0,125,71.96926ZM13.79048,65.02646c0-6.44131,5.01532-11.85238,10.20952-13.39594V71.96926a48.63716,48.63716,0,0,0,.54738,6.57179A13.7907,13.7907,0,0,1,13.79048,65.02646ZM31,47.3041C31,24.39944,50.10255,6,73.14066,6h3.441A41.19947,41.19947,0,0,1,118,47.3041V50.203c-22.61988-4.1611-31.26408-17.91336-31.6362-18.51594a3.33767,3.33767,0,0,0-2.71364-1.67727,3.73494,3.73494,0,0,0-3.09839,1.38333C64.75907,52.34559,40.57,56.61853,31,57.48781V47.3041Zm0,24.92328V65.11467c9.57-.72949,34.22233-4.6228,52.13033-25.38275C87.86815,45.14765,98.86,54.69042,118,57.88437v14.343A41.5987,41.5987,0,0,1,76.58162,114h-3.441C50.10254,113.99964,31,95.132,31,72.22738ZM68.99964,176H7V148.46939A27.4694,27.4694,0,0,1,34.46939,121H46.79813L69,156.14546V176Zm4.08083-27.47219c-.09751,0-.18927.109-.285.11651L55.14847,121H91.0121l-17.647,27.61564C73.26974,148.607,73.178,148.52781,73.08047,148.52781ZM141.99965,176H76V156.14547L99.10942,121h15.55382A27.33675,27.33675,0,0,1,142,148.33676V176Z" fill="url(#bf7f004c-bcea-4e01-933e-acbc8bfeae8a)"/>
        <path d="M93.858,158.52562a6.926,6.926,0,1,0,6.92594,6.926A6.93387,6.93387,0,0,0,93.858,158.52562Z" fill="url(#b53bfe29-dd2b-4152-8299-c42bf98cfc0b)"/>
        <path d="M55.76575,61.56366a6.926,6.926,0,1,0,6.926,6.926A6.93385,6.93385,0,0,0,55.76575,61.56366Z" fill="url(#ebc7101f-4c47-48b1-98c7-1c65a674bf46)"/>
        <path d="M93.858,61.56366a6.926,6.926,0,1,0,6.92594,6.926A6.93386,6.93386,0,0,0,93.858,61.56366Z" fill="url(#fe6057cf-2d0a-4ee7-8fa1-2a5a12e0ade1)"/>
        <path d="M96.4196,86.93709a3.46534,3.46534,0,0,0-4.89165-.23337c-2.90144,2.64119-11.875,9.48937-18.44748,9.48937-6.22408,0-12.62774-6.5234-14.57028-9.03948a3.463,3.463,0,0,0-5.49172,4.22024c.36707.48034,9.13089,11.74484,20.06236,11.74484,10.38876,0,21.83608-10.135,23.10756-11.28851A3.46433,3.46433,0,0,0,96.4196,86.93709Z" fill="url(#e522c075-e877-4dbf-952b-54e798debb10)"/>
      </g>
    </g>
  </g>
</svg>
