<?xml version="1.0" encoding="utf-8"?>
<!-- Generator: Adobe Illustrator 23.0.5, SVG Export Plug-In . SVG Version: 6.00 Build 0)  -->
<svg version="1.1" xmlns="http://www.w3.org/2000/svg" xmlns:xlink="http://www.w3.org/1999/xlink" x="0px" y="0px"
	 viewBox="0 0 207.6 207.6" enable-background="new 0 0 207.6 207.6" xml:space="preserve">
<g>
	<ellipse fill="#FFFFFF" cx="103.8" cy="103.8" rx="42.1" ry="42.1"/>
	<path fill="#FFFFFF" d="M103.8,53c3.2,0,5.9-2.7,5.9-5.9V27.9c0-3.2-2.7-5.9-5.9-5.9s-5.9,2.7-5.9,5.9v19.2
		C97.9,50.4,100.6,53,103.8,53z"/>
	<path fill="#FFFFFF" d="M103.8,154.6c-3.2,0-5.9,2.7-5.9,5.9v19.2c0,3.2,2.7,5.9,5.9,5.9s5.9-2.7,5.9-5.9v-19.2
		C109.7,157.2,107.1,154.6,103.8,154.6z"/>
	<path fill="#FFFFFF" d="M179.7,97.9h-19.2c-3.2,0-5.9,2.7-5.9,5.9s2.7,5.9,5.9,5.9h19.2c3.2,0,5.9-2.7,5.9-5.9
		C185.6,100.6,183,97.9,179.7,97.9z"/>
	<path fill="#FFFFFF" d="M53,103.8c0-3.2-2.7-5.9-5.9-5.9H27.9c-3.2,0-5.9,2.7-5.9,5.9s2.7,5.9,5.9,5.9h19.2
		C50.4,109.7,53,107.1,53,103.8z"/>
	<path fill="#FFFFFF" d="M143.9,69.7c1.5,0,3-0.6,4.2-1.7l13.6-13.6c2.3-2.3,2.3-6.1,0-8.4c-2.3-2.3-6.1-2.3-8.4,0l-13.6,13.6
		c-2.3,2.3-2.3,6.1,0,8.4C140.8,69,142.4,69.7,143.9,69.7z"/>
	<path fill="#FFFFFF" d="M59.5,139.7L46,153.3c-2.3,2.3-2.3,6.1,0,8.4c1.2,1.2,2.7,1.7,4.2,1.7s3-0.6,4.2-1.7l13.6-13.6
		c2.3-2.3,2.3-6.1,0-8.4C65.6,137.4,61.9,137.4,59.5,139.7z"/>
	<path fill="#FFFFFF" d="M148.1,139.7c-2.3-2.3-6.1-2.3-8.4,0c-2.3,2.3-2.3,6.1,0,8.4l13.6,13.6c1.2,1.2,2.7,1.7,4.2,1.7
		c1.5,0,3-0.6,4.2-1.7c2.3-2.3,2.3-6.1,0-8.4L148.1,139.7z"/>
	<path fill="#FFFFFF" d="M59.5,67.9c1.2,1.2,2.7,1.7,4.2,1.7c1.5,0,3-0.6,4.2-1.7c2.3-2.3,2.3-6.1,0-8.4L54.3,46
		c-2.3-2.3-6.1-2.3-8.4,0c-2.3,2.3-2.3,6.1,0,8.4L59.5,67.9z"/>
</g>
</svg>
