<?xml version="1.0" encoding="utf-8"?>
<!-- Generator: Adobe Illustrator 24.0.1, SVG Export Plug-In . SVG Version: 6.00 Build 0)  -->
<svg version="1.1" id="Слой_1" xmlns="http://www.w3.org/2000/svg" xmlns:xlink="http://www.w3.org/1999/xlink" x="0px" y="0px"
	 viewBox="0 0 125 125" style="enable-background:new 0 0 125 125;" xml:space="preserve">
<path d="M23.3,61.1L42,68l7.2,23.3c0.5,1.5,2.3,2,3.5,1.1l10.4-8.5c1.1-0.9,2.7-0.9,3.8-0.1l18.8,13.7c1.3,0.9,3.1,0.2,3.5-1.3
	L103,29.8c0.4-1.7-1.3-3.1-3-2.5L23.3,56.9C21.4,57.7,21.4,60.3,23.3,61.1z M48.1,64.3l36.6-22.5c0.7-0.4,1.3,0.5,0.8,1l-30.2,28
	c-1.1,1-1.7,2.3-1.9,3.7l-1,7.6c-0.1,1-1.6,1.1-1.8,0.1l-4-13.9C46.1,66.9,46.7,65.2,48.1,64.3z"/>
<path d="M0,12.1v100.8c0,6.7,5.4,12.1,12.1,12.1h100.8c6.7,0,12.1-5.4,12.1-12.1V12.1C125,5.4,119.6,0,112.9,0H12.1
	C5.4,0,0,5.4,0,12.1z M105.2,117.3H19.8c-6.7,0-12.1-5.4-12.1-12.1V19.8c0-6.7,5.4-12.1,12.1-12.1h85.3c6.7,0,12.1,5.4,12.1,12.1
	v85.3C117.3,111.9,111.9,117.3,105.2,117.3z"/>
<g>
</g>
<g>
</g>
<g>
</g>
<g>
</g>
<g>
</g>
<g>
</g>
<g>
</g>
<g>
</g>
<g>
</g>
<g>
</g>
<g>
</g>
<g>
</g>
<g>
</g>
<g>
</g>
<g>
</g>
</svg>
