<?xml version="1.0" encoding="utf-8"?>
<!-- Generator: Adobe Illustrator 24.0.1, SVG Export Plug-In . SVG Version: 6.00 Build 0)  -->
<svg version="1.1" id="Слой_1" xmlns="http://www.w3.org/2000/svg" xmlns:xlink="http://www.w3.org/1999/xlink" x="0px" y="0px"
	 viewBox="0 0 125 125" style="enable-background:new 0 0 125 125;" xml:space="preserve">
<path d="M0,12.1v100.8c0,6.7,5.4,12.1,12.1,12.1h100.8c6.7,0,12.1-5.4,12.1-12.1V12.1C125,5.4,119.6,0,112.9,0H12.1
	C5.4,0,0,5.4,0,12.1z M105.2,117.3H19.8c-6.7,0-12.1-5.4-12.1-12.1V19.8c0-6.7,5.4-12.1,12.1-12.1h85.3c6.7,0,12.1,5.4,12.1,12.1
	v85.3C117.3,111.9,111.9,117.3,105.2,117.3z"/>
<g>
</g>
<g>
</g>
<g>
</g>
<g>
</g>
<g>
</g>
<g>
</g>
<g>
</g>
<g>
</g>
<g>
</g>
<g>
</g>
<g>
</g>
<g>
</g>
<g>
</g>
<g>
</g>
<g>
</g>
<g>
	<path d="M46.5,78.4c9.4,9.4,20.8,16.6,34.1,22c9.2,3.8,17-0.2,20.2-9.6c0.6-1.7,0.6-3.4,0-5c-1.5-4-15.5-14.3-19.8-14.5
		c-3.2-0.2-5,2-6.5,4.2c-2.8,4.1-6.3,4.1-10.3,2.4c-4-1.8-7.5-4-10.3-6.9c-2.9-2.9-5.1-6.3-6.9-10.3c-1.8-3.9-1.7-7.5,2.4-10.3
		c2.2-1.5,4.4-3.2,4.2-6.5c-0.2-4.2-10.4-18.3-14.5-19.8c-1.7-0.6-3.3-0.6-5,0c-9.5,3.2-13.4,11-9.6,20.2
		C29.9,57.6,37.1,69,46.5,78.4z"/>
	<path d="M64.7,28.9c2.1-0.3,4.2-0.4,6.3-0.2c6.5,0.6,12.7,3.5,17.5,8.2c4.6,4.6,7.4,10.5,8,16.7c0.2,2.1,0.1,4.2-0.3,6.3
		c-0.3,1.5,0.7,2.9,2.2,3.1c0.2,0,0.3,0,0.5,0c1.3,0,2.4-0.9,2.7-2.2c0.4-2.5,0.5-5.1,0.3-7.7c-0.6-7.5-4-14.6-9.5-20.1
		c-5.6-5.6-13-9.1-20.8-9.8c-2.6-0.2-5.1-0.1-7.6,0.3c-1.5,0.2-2.5,1.6-2.2,3.1C61.9,28.1,63.3,29.1,64.7,28.9z"/>
	<path d="M89.7,60.7c0.1,0,0.2,0,0.3,0c1.3,0,2.5-1,2.7-2.4c0.2-1.5,0.2-3,0.1-4.4c-0.5-5.4-2.9-10.5-6.9-14.5
		c-4.1-4.1-9.5-6.7-15.2-7.2c-1.6-0.1-3.2-0.1-4.8,0.1c-1.5,0.2-2.5,1.5-2.3,3c0.2,1.5,1.5,2.5,3,2.3c1.2-0.2,2.4-0.2,3.6-0.1
		c4.4,0.4,8.6,2.4,11.9,5.6c3.1,3.1,5,7.1,5.4,11.1c0.1,1.1,0.1,2.2-0.1,3.3C87.2,59.2,88.3,60.5,89.7,60.7z"/>
	<path d="M81,59.1c0.1,0,0.1,0,0.2,0c1.4,0,2.6-1.1,2.7-2.5c0-0.6,0-1.3,0-1.9c-0.6-6.9-6.7-12.9-13.9-13.5c-0.6-0.1-1.2-0.1-1.8,0
		c-1.5,0.1-2.7,1.3-2.6,2.8c0.1,1.5,1.3,2.7,2.8,2.6c0.3,0,0.7,0,1.1,0c4.5,0.4,8.6,4.3,9,8.6c0,0.4,0,0.7,0,1.1
		C78.4,57.7,79.5,59,81,59.1z"/>
</g>
<g>
</g>
<g>
</g>
<g>
</g>
<g>
</g>
<g>
</g>
<g>
</g>
<g>
</g>
<g>
</g>
<g>
</g>
<g>
</g>
<g>
</g>
<g>
</g>
<g>
</g>
<g>
</g>
<g>
</g>
</svg>
