<?xml version="1.0" encoding="utf-8"?>
<!-- Generator: Adobe Illustrator 24.0.1, SVG Export Plug-In . SVG Version: 6.00 Build 0)  -->
<svg version="1.1" id="Слой_1" xmlns="http://www.w3.org/2000/svg" xmlns:xlink="http://www.w3.org/1999/xlink" x="0px" y="0px"
	 viewBox="0 0 600 1200" style="enable-background:new 0 0 600 1200;" xml:space="preserve">
<style type="text/css">
	.st0{opacity:0.12;}
	.st1{fill-rule:evenodd;clip-rule:evenodd;fill:#D6D6D6;}
	.st2{fill-rule:evenodd;clip-rule:evenodd;fill:url(#SVGID_1_);}
</style>
<g class="st0">
	<path class="st1" d="M2.1,38c0,0,120.6,45.8,120.6,100.3s32.5,162.2,127.6,194.9s158.1,65.4,193.4,174.6s81,104.3,59.5,209
		c-21.5,104.7,24.6,144.8-72,169.1s-96.3,38.7-129.2,90.8c-32.9,52.1-32.1,92.3-82.2,94.7s-96.9,34.2-130.7,20.4
		s-68.6-47.6-79.9-47.8c-11.2-0.2-15.7-16.4-15.7-16.4L2.1,38z"/>
</g>
<g>
	
		<linearGradient id="SVGID_1_" gradientUnits="userSpaceOnUse" x1="154.0424" y1="228.1821" x2="154.0424" y2="-404.2" gradientTransform="matrix(1 0 0 1 0 688)">
		<stop  offset="0" style="stop-color:#424672"/>
		<stop  offset="1" style="stop-color:#5B619E"/>
	</linearGradient>
	<path class="st2" d="M5.2,283.8c0,0,72.1,27.4,72.1,60s19.4,97,76.3,116.6s94.5,39.1,115.7,104.4c21.1,65.3,48.4,62.4,35.6,125
		s14.7,86.6-43.1,101.1s-57.6,23.1-77.3,54.3s-19.2,55.2-49.2,56.7c-30,1.4-57.9,20.5-78.2,12.2s-41-28.4-47.8-28.6
		c-6.7-0.1-9.4-9.8-9.4-9.8L5.2,283.8z"/>
</g>
</svg>
