<?xml version="1.0" encoding="utf-8"?>
<!-- Generator: Adobe Illustrator 24.0.1, SVG Export Plug-In . SVG Version: 6.00 Build 0)  -->
<svg version="1.1" id="Слой_1" xmlns="http://www.w3.org/2000/svg" xmlns:xlink="http://www.w3.org/1999/xlink" x="0px" y="0px"
	 viewBox="0 0 600 1200" style="enable-background:new 0 0 600 1200;" xml:space="preserve">
<g>
	<linearGradient id="SVGID_1_" gradientUnits="userSpaceOnUse" x1="251.0813" y1="1095.3368" x2="251.0813" y2="37.9684">
		<stop  offset="0" style="stop-color:#FFFFFF"/>
		<stop  offset="1" style="stop-color:#EDEDED"/>
	</linearGradient>
	<path style="fill-rule:evenodd;clip-rule:evenodd;fill:url(#SVGID_1_);" d="M2.1,38c0,0,120.6,45.8,120.6,100.3
		c0,54.5,32.5,162.2,127.6,194.9s158.1,65.4,193.4,174.6c35.3,109.2,81,104.3,59.5,209c-21.5,104.7,24.6,144.8-72,169.1
		c-96.6,24.3-96.3,38.7-129.2,90.8c-32.9,52.1-32.1,92.3-82.2,94.7c-50.1,2.4-96.9,34.2-130.7,20.4s-68.6-47.6-79.9-47.8
		c-11.2-0.2-15.7-16.4-15.7-16.4L2.1,38z"/>
</g>
<g>
	<linearGradient id="SVGID_2_" gradientUnits="userSpaceOnUse" x1="154.0708" y1="916.2023" x2="154.0708" y2="283.7977">
		<stop  offset="0" style="stop-color:#424672"/>
		<stop  offset="1" style="stop-color:#5B619E"/>
	</linearGradient>
	<path style="fill-rule:evenodd;clip-rule:evenodd;fill:url(#SVGID_2_);" d="M5.2,283.8c0,0,72.1,27.4,72.1,60
		c0,32.6,19.4,97,76.3,116.6c56.9,19.6,94.5,39.1,115.7,104.4c21.1,65.3,48.4,62.4,35.6,125c-12.8,62.6,14.7,86.6-43.1,101.1
		c-57.8,14.5-57.6,23.1-77.3,54.3c-19.7,31.2-19.2,55.2-49.2,56.7c-30,1.4-57.9,20.5-78.2,12.2c-20.3-8.3-41-28.4-47.8-28.6
		c-6.7-0.1-9.4-9.8-9.4-9.8L5.2,283.8z"/>
</g>
</svg>
