<?xml version="1.0" encoding="utf-8"?>
<!-- Generator: Adobe Illustrator 24.0.1, SVG Export Plug-In . SVG Version: 6.00 Build 0)  -->
<svg version="1.1" id="Слой_1" xmlns="http://www.w3.org/2000/svg" xmlns:xlink="http://www.w3.org/1999/xlink" x="0px" y="0px"
	 viewBox="0 0 600 1200" style="enable-background:new 0 0 600 1200;" xml:space="preserve">
<style type="text/css">
	.st0{fill-rule:evenodd;clip-rule:evenodd;fill:url(#SVGID_1_);}
</style>
<g>
	
		<linearGradient id="SVGID_1_" gradientUnits="userSpaceOnUse" x1="154.0424" y1="971.8179" x2="154.0424" y2="1604.2" gradientTransform="matrix(1 -9.942887e-03 -9.942887e-03 -1 12.8141 1889.468)">
		<stop  offset="0" style="stop-color:#424672"/>
		<stop  offset="1" style="stop-color:#5B619E"/>
	</linearGradient>
	<path class="st0" d="M2.1,285.3c0,0,72.4,26.7,72.7,59.3c0.3,32.6,20.4,96.8,77.5,115.8s94.9,38.2,116.7,103.2
		c21.7,65.1,49,61.9,36.8,124.6s15.6,86.4-42.1,101.5s-57.4,23.7-76.8,55.1s-18.7,55.4-48.6,57.2c-30,1.7-57.7,21.1-78.1,13
		s-41.3-28-48.1-28.1c-6.7,0-9.5-9.7-9.5-9.7L2.1,285.3z"/>
</g>
</svg>
