<?xml version="1.0" encoding="utf-8"?>
<!-- Generator: Adobe Illustrator 24.0.1, SVG Export Plug-In . SVG Version: 6.00 Build 0)  -->
<svg version="1.1" id="Слой_1" xmlns="http://www.w3.org/2000/svg" xmlns:xlink="http://www.w3.org/1999/xlink" x="0px" y="0px"
	 viewBox="0 0 600 1200" style="enable-background:new 0 0 600 1200;" xml:space="preserve">
<style type="text/css">
	.st0{opacity:0.12;fill:#D6D6D6;}
	.st1{fill:url(#SVGID_1_);}
</style>
<path class="st0" d="M579.8,8.6c0,0-122-24-179.3,97.7c0,0-44.4,60.9-101,100.6S189.8,392.9,194.3,451s2.3,102.2,84.8,179.1
	S386.7,800.7,379,831.8c-7.6,31.1-13.8,145.2,42.8,192.8s52.9,37.9,77.7,88C524.3,1162.8,600,1193,600,1193L579.8,8.6z"/>
<linearGradient id="SVGID_1_" gradientUnits="userSpaceOnUse" x1="493.6276" y1="101.4999" x2="493.6276" y2="-520.4102" gradientTransform="matrix(1 0 0 1 0 688)">
	<stop  offset="0" style="stop-color:#424672"/>
	<stop  offset="1" style="stop-color:#5B619E"/>
</linearGradient>
<path class="st1" d="M589.4,168.6c0,0-64-12.6-94,51.2c0,0-23.3,31.9-53,52.7s-57.5,97.5-55.1,128s1.2,53.6,44.5,93.9
	s56.4,89.5,52.4,105.7c-4,16.3-7.2,76.1,22.5,101.1s27.7,19.9,40.7,46.2s52.7,42.1,52.7,42.1L589.4,168.6z"/>
</svg>
