<svg xmlns="http://www.w3.org/2000/svg" xmlns:xlink="http://www.w3.org/1999/xlink" viewBox="0 0 118.05597 196.43232">
  <defs>
    <linearGradient id="afec190d-dbda-49a0-a019-e6d87a10ad05" data-name="Безымянный градиент 13" x1="59.02798" x2="59.02798" y2="196.43232" gradientUnits="userSpaceOnUse">
      <stop offset="0" stop-color="#5b619e"/>
      <stop offset="1" stop-color="#424672"/>
    </linearGradient>
  </defs>
  <title>Ресурс 1</title>
  <g id="eb9b7f04-acbf-475a-8bba-7e110c3a6217" data-name="Слой 2">
    <g id="a9bbc269-1083-4f47-85a0-5c78ff3e72e2" data-name="Слой 1">
      <path d="M0,14.18221c2.78076,1.91545,5.33965,3.46815,7.66532,5.31489A64.58757,64.58757,0,0,1,31.48914,59.17088c1.5569,8.20661,2.00516,16.62378,2.95433,24.9458q.91207,7.99684,1.82051,15.99409c.1299,1.15308.21949,2.31071.29234,3.0889a42.22736,42.22736,0,0,0-6.027,1.4632,9.11289,9.11289,0,0,0-5.84524,10.736c.79164,4.14442,4.79554,7.44983,9.24276,7.78715a5.02211,5.02211,0,0,0,5.39677-2.78582A100.38785,100.38785,0,0,0,53.08253,67.32036c-.28154-15.71068-.93547-31.41435-1.2999-47.124A29.0963,29.0963,0,0,1,57.521,1.80157C57.94517,1.22707,58.4204.6903,58.98275,0a24.5533,24.5533,0,0,1,6.4115,12.86454,70.99626,70.99626,0,0,1,.75021,12.29709c-.30262,14.26981-.995,28.53256-1.20248,42.80289a99.12631,99.12631,0,0,0,14.10621,52.97272,4.10821,4.10821,0,0,0,3.91393,2.2651c6.50925.11461,11.2243-4.95042,10.45354-11.38192-.58532-4.88405-5.94712-8.63593-11.97575-8.147.2011-2.08444.36875-4.12585.59908-6.16016,1.42823-12.61437,2.53113-25.278,4.41047-37.8251,1.64454-10.97947,6.37386-20.8349,13.26123-29.58443a61.161,61.161,0,0,1,15.81723-14.25711c.75253-.46809,1.54411-.87333,2.52805-1.42589V157.71982h-2.138c-9.68662,0-19.37336.02434-29.05969-.028-1.33751-.00722-1.88681.30085-2.19524,1.72717a51.98306,51.98306,0,0,1-19.20193,31.03232c-2.35557,1.83755-4.3838,4.09517-6.3743,5.981-2.69039-2.40412-5.496-5.00719-8.40315-7.49124a52.05353,52.05353,0,0,1-17.306-29.37437c-.31643-1.457-.80016-1.88954-2.26485-1.87979-9.62073.064-19.2421.033-28.86327.03292H0ZM10.02358,108.4778a40.67986,40.67986,0,0,0,4.20511-.0502,1.85283,1.85283,0,0,0,1.28679-1.05584A18.554,18.554,0,0,1,24.551,96.48158a2.03617,2.03617,0,0,0,1.09507-2.49534c-1.15951-9.20913-2.50726-18.40534-3.2881-27.64859-.92232-10.918-5.12433-20.42717-11.27787-29.25143a14.80674,14.80674,0,0,0-1.05653-1.17539ZM107.99088,36.16c-.24375.09379-.40242.1033-.46176.185-5.31389,7.31844-9.69433,15.14528-11.01457,24.19675C94.8736,71.792,93.71622,83.11255,92.30407,94.397a1.69519,1.69519,0,0,0,1.0167,1.9905,18.70036,18.70036,0,0,1,9.17562,11.01033,1.6905,1.6905,0,0,0,1.11633,1.02928c1.4108.12754,2.84023.049,4.37816.049Zm-74.4384,97.20826c-8.92843-1.476-15.82773-5.52108-18.36886-14.88481H10.04627v29.46015H31.53748C32.2185,143.01751,32.87821,138.24556,33.55248,133.36827Zm74.44332,14.65026v-29.6493a41.09067,41.09067,0,0,0-4.20747.05,1.83639,1.83639,0,0,0-1.2791,1.051c-2.05078,6.95057-7.019,10.80106-13.61227,12.91265-1.515.48519-3.10728.72863-4.42867,1.02971.68233,4.9445,1.34153,9.72153,2.01557,14.606ZM47.66955,126.1038l11.34223,7.63536,11.32448-7.63374c-5.18067-8.25106-8.39778-17.18862-11.32837-26.62093C56.0844,108.88159,52.89353,117.77805,47.66955,126.1038Zm6.104,51.787V157.86656H43.74729A34.90214,34.90214,0,0,0,53.77357,177.89082Zm10.43807.02182A34.861,34.861,0,0,0,74.27123,157.844H64.21164Zm-.16378-30.14139H76.18823c-.5183-4.08014-1.011-7.95884-1.50015-11.80941C68.81124,136.37885,64.80475,140.97224,64.04786,147.77125Zm-10.07251.05345c-.79016-6.91479-4.97731-11.66046-10.68677-11.79959-.46886,3.85138-.94324,7.748-1.43647,11.79959Z" fill="url(#afec190d-dbda-49a0-a019-e6d87a10ad05)"/>
    </g>
  </g>
</svg>
