<svg xmlns="http://www.w3.org/2000/svg" xmlns:xlink="http://www.w3.org/1999/xlink" viewBox="0 0 93.99902 120.99023">
  <defs>
    <linearGradient id="b7078ae0-a773-4530-aadb-ab4e421258a4" data-name="Безымянный градиент 13" x1="31.87305" x2="31.87305" y2="30.57031" gradientUnits="userSpaceOnUse">
      <stop offset="0" stop-color="#5b619e"/>
      <stop offset="1" stop-color="#424672"/>
    </linearGradient>
    <linearGradient id="ba954622-6828-4f5c-a48c-4da744465dfd" x1="52.54346" x2="52.54346" y2="30.57031" xlink:href="#b7078ae0-a773-4530-aadb-ab4e421258a4"/>
    <linearGradient id="ac42c170-a053-4d76-9483-e1bf663e91df" x1="6.65625" y1="89.95801" x2="6.65625" y2="120.57031" xlink:href="#b7078ae0-a773-4530-aadb-ab4e421258a4"/>
    <linearGradient id="f2647091-1336-41ae-8ca4-50b91392322d" x1="33.4165" y1="89.58008" x2="33.4165" y2="120.57031" xlink:href="#b7078ae0-a773-4530-aadb-ab4e421258a4"/>
    <linearGradient id="aaf6c52a-d385-4b35-8bcd-5431ba65ba3e" x1="57.79199" y1="89.58008" x2="57.79199" y2="120.99023" xlink:href="#b7078ae0-a773-4530-aadb-ab4e421258a4"/>
    <linearGradient id="f9bea5bb-98b2-44b6-910b-6ec3d7734f48" x1="82.8291" y1="90" x2="82.8291" y2="120.57031" xlink:href="#b7078ae0-a773-4530-aadb-ab4e421258a4"/>
  </defs>
  <title>Ресурс 7</title>
  <g id="b4dc5df7-6317-4364-b7e1-3f7c93a2e0ae" data-name="Слой 2">
    <g id="a65083d9-4355-4425-a32e-67d98d594961" data-name="Слой 1">
      <g>
        <path d="M35.02246,30.57031H28.72363V0h6.29883Z" fill="url(#b7078ae0-a773-4530-aadb-ab4e421258a4)"/>
        <path d="M40.85938,30.57031V0h9.40625a14.28081,14.28081,0,0,1,7.21191,1.81641,12.66177,12.66177,0,0,1,4.96582,5.165,15.93281,15.93281,0,0,1,1.78418,7.61035V15.999a15.96928,15.96928,0,0,1-1.75293,7.57911,12.55359,12.55359,0,0,1-4.94434,5.14453,14.38974,14.38974,0,0,1-7.20117,1.84765ZM47.1582,5.10156V25.50977h3.044a6.84131,6.84131,0,0,0,5.64844-2.41407q1.95263-2.41406,1.99414-6.9082V14.57129q0-4.66113-1.93164-7.06543a6.81571,6.81571,0,0,0-5.64746-2.4043Z" fill="url(#ba954622-6828-4f5c-a48c-4da744465dfd)"/>
        <path d="M13.3125,120.57031H7.24414V97.18066L0,99.42773V94.49316L12.66113,89.958h.65137Z" fill="url(#ac42c170-a053-4d76-9483-e1bf663e91df)"/>
        <path d="M44.19824,120.57031H23.24316v-4.15722l9.88965-10.54a24.34016,24.34016,0,0,0,3.0127-3.88477,6.23377,6.23377,0,0,0,.97656-3.14844,4.66516,4.66516,0,0,0-1.0293-3.20214,3.71054,3.71054,0,0,0-2.93945-1.165,4.002,4.002,0,0,0-3.24316,1.417,5.61092,5.61092,0,0,0-1.18653,3.72656H22.63477a10.027,10.027,0,0,1,1.333-5.10254,9.39931,9.39931,0,0,1,3.76953-3.62109,11.44963,11.44963,0,0,1,5.52149-1.3125q4.72412,0,7.33789,2.26758a8.02148,8.02148,0,0,1,2.61426,6.40429,10.27657,10.27657,0,0,1-1.17578,4.61914,25.707,25.707,0,0,1-4.03125,5.4795l-6.9502,7.32714H44.19824Z" fill="url(#f2647091-1336-41ae-8ca4-50b91392322d)"/>
        <path d="M54.08691,102.59766h3.23243a4.55851,4.55851,0,0,0,3.42285-1.1543,4.23218,4.23218,0,0,0,1.1123-3.06641,3.74175,3.74175,0,0,0-1.10156-2.876,4.27409,4.27409,0,0,0-3.03418-1.02832,4.47991,4.47991,0,0,0-2.919.95507A3.05583,3.05583,0,0,0,53.624,97.916H47.55664a7.46612,7.46612,0,0,1,1.291-4.294A8.61625,8.61625,0,0,1,52.459,90.65039a12.0676,12.0676,0,0,1,5.11231-1.07031q4.85156,0,7.60156,2.32031a7.9171,7.9171,0,0,1,2.75,6.39258,6.42742,6.42742,0,0,1-1.28125,3.86328,8.31327,8.31327,0,0,1-3.35937,2.709,7.60089,7.60089,0,0,1,3.85351,2.77149,7.518,7.518,0,0,1,1.26953,4.36719,8.04458,8.04458,0,0,1-2.9707,6.52929,11.94,11.94,0,0,1-7.86328,2.457,11.32673,11.32673,0,0,1-7.48438-2.41406,7.88558,7.88558,0,0,1-2.9082-6.38281h6.06836a3.51186,3.51186,0,0,0,1.291,2.8125,5.38725,5.38725,0,0,0,6.57129-.05176,3.94888,3.94888,0,0,0,1.22851-3.03418q0-4.57764-5.03906-4.57715H54.08691Z" fill="url(#aaf6c52a-d385-4b35-8bcd-5431ba65ba3e)"/>
        <path d="M90.53516,109.06445H93.999V113.957H90.53516v6.61328H84.46777V113.957H71.93262l-.27344-3.82226L84.4043,90h6.13086Zm-12.82911,0h6.76172v-10.792l-.39941.69238Z" fill="url(#f9bea5bb-98b2-44b6-910b-6ec3d7734f48)"/>
      </g>
    </g>
  </g>
</svg>
