<?xml version="1.0" encoding="utf-8"?>
<!-- Generator: Adobe Illustrator 24.0.1, SVG Export Plug-In . SVG Version: 6.00 Build 0)  -->
<svg version="1.1" id="Слой_1" xmlns="http://www.w3.org/2000/svg" xmlns:xlink="http://www.w3.org/1999/xlink" x="0px" y="0px"
	 viewBox="0 0 256 256" style="enable-background:new 0 0 256 256;" xml:space="preserve">
<g>
</g>
<g>
</g>
<g>
</g>
<g>
</g>
<g>
</g>
<g>
</g>
<g>
</g>
<g>
</g>
<g>
</g>
<g>
</g>
<g>
</g>
<g>
</g>
<g>
</g>
<g>
</g>
<g>
</g>
<g>
</g>
<g>
</g>
<g>
</g>
<g>
</g>
<g>
</g>
<g>
</g>
<g>
</g>
<g>
</g>
<g>
</g>
<g>
</g>
<g>
</g>
<g>
</g>
<g>
</g>
<g>
</g>
<g>
	<g>
	</g>
	<g>
	</g>
	<g>
	</g>
	<g>
	</g>
	<g>
	</g>
	<g>
	</g>
	<g>
	</g>
	<g>
	</g>
	<g>
	</g>
	<g>
	</g>
	<g>
	</g>
	<g>
	</g>
	<g>
	</g>
	<g>
	</g>
	<g>
	</g>
</g>
<g>
</g>
<g>
</g>
<g>
</g>
<g>
</g>
<g>
</g>
<g>
</g>
<g>
</g>
<g>
</g>
<g>
</g>
<g>
</g>
<g>
</g>
<g>
</g>
<g>
</g>
<g>
</g>
<g>
</g>
<linearGradient id="SVGID_1_" gradientUnits="userSpaceOnUse" x1="23.6894" y1="201.1814" x2="122.9189" y2="201.1814">
	<stop  offset="0" style="stop-color:#5B619D"/>
	<stop  offset="1" style="stop-color:#5B61A4"/>
</linearGradient>
<path style="fill:url(#SVGID_1_);" d="M119.2,165.2h-0.4l0.4-3.3c0.1-1.1-0.2-2.1-0.9-2.9c-0.7-0.8-1.7-1.3-2.8-1.3H31.1
	c-1.1,0-2.1,0.5-2.8,1.3c-0.7,0.8-1,1.9-0.9,2.9l0.4,3.3h-0.4c-2.1,0-3.7,1.7-3.7,3.7c0,9.9,2.9,19.2,8,27l5.7,45.4
	c0.2,1.9,1.8,3.3,3.7,3.3h64.5c1.9,0,3.5-1.4,3.7-3.3l5.7-45.4c5.1-7.8,8-17,8-27C122.9,166.9,121.3,165.2,119.2,165.2z
	 M111.3,165.2l-3.5,28c-7.6,10.8-20.2,17.9-34.5,17.9s-26.8-7.1-34.5-17.9l-3.5-28H111.3z M102.3,237.2H44.3l-3.9-31.1
	c8.8,7.8,20.3,12.5,32.8,12.5s24.1-4.7,32.8-12.5L102.3,237.2z"/>
<linearGradient id="SVGID_2_" gradientUnits="userSpaceOnUse" x1="125.4001" y1="128" x2="232.0711" y2="128">
	<stop  offset="0" style="stop-color:#5B619D"/>
	<stop  offset="1" style="stop-color:#5B61A4"/>
</linearGradient>
<path style="fill:url(#SVGID_2_);" d="M198.6,207.4c-4.2,0-8.3,0.8-12.2,2.3c-6.5-4.7-14.4-7.3-22.5-7.3c-1.3,0-2.6,0.1-3.9,0.2
	l-2.3-11.7V15.1c0-2.1-1.7-3.7-3.7-3.7H139c-2.1,0-3.7,1.7-3.7,3.7v175.8l-7.1,35.6c-1.8,4.4-2.8,9.3-2.8,14.4
	c0,2.1,1.7,3.7,3.7,3.7h99.2c2.1,0,3.7-1.7,3.7-3.7C232.1,222.4,217,207.4,198.6,207.4z M150.2,187.5h-7.4V48.6h7.4V187.5z
	 M142.1,195h8.8l1.8,9.1c-5.2,1.6-9.9,4.2-14,7.7L142.1,195z M150.2,41.2h-7.4V18.8h7.4V41.2z M133.1,237.2
	c1.8-15.4,14.9-27.3,30.8-27.3c7.1,0,14,2.4,19.5,6.9c0.1,0.1,0.2,0.1,0.2,0.2c3.5,2.9,6.4,6.6,8.3,10.6c0.9,1.9,3.1,2.6,5,1.8
	c1.9-0.9,2.6-3.1,1.8-5c-1.5-3.2-3.5-6.2-5.9-8.9c1.9-0.4,3.9-0.7,5.9-0.7c13.1,0,24,9.7,25.8,22.3L133.1,237.2L133.1,237.2z"/>
<g>
</g>
<g>
</g>
<g>
</g>
<g>
</g>
<g>
</g>
<g>
</g>
<g>
</g>
<g>
</g>
<g>
</g>
<g>
</g>
<g>
</g>
<g>
</g>
<g>
</g>
<g>
</g>
<g>
</g>
</svg>
