<?xml version="1.0" encoding="utf-8"?>
<!-- Generator: Adobe Illustrator 23.0.5, SVG Export Plug-In . SVG Version: 6.00 Build 0)  -->
<svg version="1.1" id="Capa_1" xmlns="http://www.w3.org/2000/svg" xmlns:xlink="http://www.w3.org/1999/xlink" x="0px" y="0px"
	 viewBox="0 0 525.9 525.9" enable-background="new 0 0 525.9 525.9" xml:space="preserve">
<g>
	<g id="iconos_24_">
		<linearGradient id="SVGID_1_" gradientUnits="userSpaceOnUse" x1="260.9736" y1="503.1965" x2="260.9736" y2="162.5101">
			<stop  offset="0" style="stop-color:#424672"/>
			<stop  offset="1" style="stop-color:#5B619E"/>
		</linearGradient>
		<path fill="url(#SVGID_1_)" d="M237.9,168l-20,50c-0.4,1-0.6,2.1-0.6,3.2v273.2c0,4.8,3.9,8.7,8.7,8.7h69.9c4.8,0,8.7-3.9,8.7-8.7
			V219.6c0-0.9-0.1-1.8-0.4-2.7l-15.8-48.4c-1.2-3.6-4.5-6-8.3-6H246C242.5,162.5,239.2,164.7,237.9,168z"/>
		<linearGradient id="SVGID_2_" gradientUnits="userSpaceOnUse" x1="278.1269" y1="136.304" x2="278.1269" y2="22.7415">
			<stop  offset="0" style="stop-color:#424672"/>
			<stop  offset="1" style="stop-color:#5B619E"/>
		</linearGradient>
		<path fill="url(#SVGID_2_)" d="M147.4,31.5v61.1c0,4.8,3.9,8.7,8.7,8.7h34.9c4.8,0,8.7-3.9,8.7-8.7v0c0-4.8,3.9-8.7,8.7-8.7H226
			c4.8,0,8.7,3.9,8.7,8.7v34.9c0,4.8,3.9,8.7,8.7,8.7h43.7c4.8,0,8.7-3.9,8.7-8.7v-25.4c0-16.6,26.5-21,41.3-21
			c23.5,0,42.5,12.9,54.9,20.8c12.4,8,22.9-10.6,12.3-24.4c-10.2-13.2-53.9-54.9-108.5-54.9h-52.4c-4.8,0-8.7,3.9-8.7,8.7v0
			c0,4.8-3.9,8.7-8.7,8.7h-17.5c-4.8,0-8.7-3.9-8.7-8.7v0c0-4.8-3.9-8.7-8.7-8.7h-34.9C151.3,22.7,147.4,26.7,147.4,31.5z"/>
	</g>
</g>
</svg>
