<?xml version="1.0" encoding="utf-8"?>
<!-- Generator: Adobe Illustrator 23.0.5, SVG Export Plug-In . SVG Version: 6.00 Build 0)  -->
<svg version="1.1" id="Capa_1" xmlns="http://www.w3.org/2000/svg" xmlns:xlink="http://www.w3.org/1999/xlink" x="0px" y="0px"
	 viewBox="0 0 203.7 203.7" enable-background="new 0 0 203.7 203.7" xml:space="preserve">
<g>
	<linearGradient id="SVGID_1_" gradientUnits="userSpaceOnUse" x1="101.836" y1="186.6897" x2="101.836" y2="16.9823">
		<stop  offset="0" style="stop-color:#424672"/>
		<stop  offset="1" style="stop-color:#5B619E"/>
	</linearGradient>
	<path fill="url(#SVGID_1_)" d="M176.4,17h-27.7c-1.3,0-2.4,1-2.5,2.3L141,82.1c-0.1,1.8-2.1,2.8-3.6,2l-37.2-19.6
		c-1.6-0.9-3.6,0.3-3.6,2.2v12.7c0,1.9-2,3.1-3.6,2.2L60.4,64.5c-1.6-0.9-3.6,0.3-3.6,2.2v12.7c0,1.9-2,3.1-3.6,2.2L20.6,64.5
		C19,63.6,17,64.8,17,66.7v117.5c0,1.4,1.1,2.5,2.5,2.5h164.8c1.4,0,2.5-1.1,2.5-2.5V113c0-0.1,0-0.1,0-0.2l-7.8-93.6
		C178.8,18,177.7,17,176.4,17z M158.4,27.5h8.4c1.3,0,2.4,1,2.5,2.3l5.8,69.8c0.2,1.9-1.9,3.3-3.6,2.4l-19.2-10.1
		c-0.9-0.5-1.4-1.4-1.3-2.4l5-59.7C156,28.5,157.1,27.5,158.4,27.5z M30,133.5h74.7c1.4,0,2.5,1.1,2.5,2.5v13.3
		c0,1.4-1.1,2.5-2.5,2.5H30c-1.4,0-2.5-1.1-2.5-2.5V136C27.5,134.6,28.6,133.5,30,133.5z M152.7,176.2h-11.6c-1.4,0-2.5-1.1-2.5-2.5
		V136c0-1.4,1.1-2.5,2.5-2.5h11.6c1.4,0,2.5,1.1,2.5,2.5v37.7C155.2,175.1,154.1,176.2,152.7,176.2z M173.7,176.2h-5.5
		c-1.4,0-2.5-1.1-2.5-2.5v-48.2c0-1.4-1.1-2.5-2.5-2.5h-32.6c-1.4,0-2.5,1.1-2.5,2.5v48.2c0,1.4-1.1,2.5-2.5,2.5H30
		c-1.4,0-2.5-1.1-2.5-2.5v-9c0-1.4,1.1-2.5,2.5-2.5h85.2c1.4,0,2.5-1.1,2.5-2.5v-34.2c0-1.4-1.1-2.5-2.5-2.5H30
		c-1.4,0-2.5-1.1-2.5-2.5V84.1c0-1.9,2-3.1,3.6-2.2L63.7,99c1.6,0.9,3.6-0.3,3.6-2.2V84.1c0-1.9,2-3.1,3.6-2.2L103.5,99
		c1.6,0.9,3.6-0.3,3.6-2.2V84.1c0-1.9,2-3.1,3.6-2.2l64.2,33.7c0.8,0.4,1.3,1.3,1.3,2.2v55.9C176.2,175.1,175.1,176.2,173.7,176.2z"
		/>
</g>
</svg>
