<?xml version="1.0" encoding="utf-8"?>
<!-- Generator: Adobe Illustrator 24.0.1, SVG Export Plug-In . SVG Version: 6.00 Build 0)  -->
<svg version="1.1" id="Слой_1" xmlns="http://www.w3.org/2000/svg" xmlns:xlink="http://www.w3.org/1999/xlink" x="0px" y="0px"
	 viewBox="0 0 256 256" style="enable-background:new 0 0 256 256;" xml:space="preserve">
<g>
</g>
<g>
</g>
<g>
</g>
<g>
</g>
<g>
</g>
<g>
</g>
<g>
</g>
<g>
</g>
<g>
</g>
<g>
</g>
<g>
</g>
<g>
</g>
<g>
</g>
<g>
</g>
<g>
</g>
<g>
</g>
<g>
</g>
<g>
</g>
<g>
</g>
<g>
</g>
<g>
</g>
<g>
</g>
<g>
</g>
<g>
</g>
<g>
</g>
<g>
</g>
<g>
</g>
<g>
</g>
<g>
</g>
<g>
	<g>
	</g>
	<g>
	</g>
	<g>
	</g>
	<g>
	</g>
	<g>
	</g>
	<g>
	</g>
	<g>
	</g>
	<g>
	</g>
	<g>
	</g>
	<g>
	</g>
	<g>
	</g>
	<g>
	</g>
	<g>
	</g>
	<g>
	</g>
	<g>
	</g>
</g>
<g>
</g>
<g>
</g>
<g>
</g>
<g>
</g>
<g>
</g>
<g>
</g>
<g>
</g>
<g>
</g>
<g>
</g>
<g>
</g>
<g>
</g>
<g>
</g>
<g>
</g>
<g>
</g>
<g>
</g>
<g>
</g>
<g>
</g>
<g>
</g>
<g>
</g>
<g>
</g>
<g>
</g>
<g>
</g>
<g>
</g>
<g>
</g>
<g>
</g>
<g>
</g>
<g>
</g>
<g>
</g>
<g>
</g>
<g>
</g>
<g>
	<g>
		<linearGradient id="SVGID_1_" gradientUnits="userSpaceOnUse" x1="30.6452" y1="194.5024" x2="44.3173" y2="194.5024">
			<stop  offset="0" style="stop-color:#5B619D"/>
			<stop  offset="1" style="stop-color:#5B61A4"/>
		</linearGradient>
		<path style="fill:url(#SVGID_1_);" d="M37.5,187.7c-3.8,0-6.8,3.1-6.8,6.8c0,3.8,3.1,6.8,6.8,6.8s6.8-3.1,6.8-6.8
			C44.3,190.7,41.3,187.7,37.5,187.7z"/>
		<linearGradient id="SVGID_2_" gradientUnits="userSpaceOnUse" x1="143.7936" y1="194.5024" x2="157.4657" y2="194.5024">
			<stop  offset="0" style="stop-color:#5B619D"/>
			<stop  offset="1" style="stop-color:#5B61A4"/>
		</linearGradient>
		<path style="fill:url(#SVGID_2_);" d="M150.6,187.7c-3.8,0-6.8,3.1-6.8,6.8c0,3.8,3.1,6.8,6.8,6.8s6.8-3.1,6.8-6.8
			C157.5,190.7,154.4,187.7,150.6,187.7z"/>
		<linearGradient id="SVGID_3_" gradientUnits="userSpaceOnUse" x1="18.8589" y1="137.9282" x2="237.1411" y2="137.9282">
			<stop  offset="0" style="stop-color:#5B619D"/>
			<stop  offset="1" style="stop-color:#5B61A4"/>
		</linearGradient>
		<path style="fill:url(#SVGID_3_);" d="M233.6,77.8h-45.3c-2,0-3.5,1.6-3.5,3.5v79.4h-8V92.7c0-2-1.6-3.5-3.5-3.5
			c-2,0-3.5,1.6-3.5,3.5v30.4h-8V92.7c0-2-1.6-3.5-3.5-3.5c-2,0-3.5,1.6-3.5,3.5v68.1c-0.1,0-0.2,0-0.2,0H142l-19.6-72
			c-1.8-6.4-7.6-10.9-14.3-10.9H86.3v-5.9c0-5.1-4.1-9.2-9.2-9.2c-5.1,0-9.2,4.1-9.2,9.2v5.9h-0.2H52.6c-8.2,0-14.9,6.7-14.9,14.9
			V157h-7.8c-2,0-3.5,1.6-3.5,3.5v18.9c0,0,0,0.1,0,0.1c-4.6,3.4-7.5,8.8-7.5,15c0,10.3,8.4,18.6,18.6,18.6
			c7.7,0,14.3-4.7,17.1-11.3h78.9c2.8,6.6,9.5,11.3,17.1,11.3c10.3,0,18.6-8.4,18.6-18.6c0-6.1-3-11.6-7.5-15c0,0,0-0.1,0-0.1v-26.6
			h8v11.6c0,2,1.6,3.5,3.5,3.5h60.3c2,0,3.5-1.6,3.5-3.5v-83C237.1,79.4,235.6,77.8,233.6,77.8z M207.4,84.9v7.8
			c0,2,1.6,3.5,3.5,3.5c2,0,3.5-1.6,3.5-3.5v-7.8h15.6v34.4h-38.2V84.9H207.4z M75,71.9c0-1.2,1-2.1,2.1-2.1c1.2,0,2.1,1,2.1,2.1
			v5.9H75V71.9z M67.7,84.9H108c3.5,0,6.6,2.4,7.5,5.7l19.8,72.7l-12.6,12.6h-17.6v-17.2c0-5.1-4.1-9.2-9.2-9.2H75v-34.2
			c0-6.1-5-11.1-11.1-11.1c-1.4,0-2.8,0.3-4,0.8V88.9c0-2.2,1.8-4,4-4H67.7z M94.9,175.9l-35-17.5v-43.1c0-2.2,1.8-4,4-4
			c2.2,0,4,1.8,4,4V153c0,2,1.6,3.5,3.5,3.5h24.5c1.2,0,2.1,1,2.1,2.1v17.2H94.9z M44.8,92.7c0-4.3,3.5-7.8,7.8-7.8h1
			c-0.5,1.2-0.8,2.6-0.8,4v26.4V157h-8V92.7z M37.5,206.1c-6.4,0-11.6-5.2-11.6-11.6c0-6.4,5.2-11.6,11.6-11.6S49,188.1,49,194.5
			C49,200.9,43.9,206.1,37.5,206.1z M150.6,206.1c-6.4,0-11.6-5.2-11.6-11.6c0-6.4,5.2-11.6,11.6-11.6c6.4,0,11.6,5.2,11.6,11.6
			C162.2,200.9,157,206.1,150.6,206.1z M150.6,175.9c-10.3,0-18.6,8.4-18.6,18.6c0,0.1,0,0.2,0,0.2H56.1c0-0.1,0-0.2,0-0.2
			c0-10.3-8.4-18.6-18.6-18.6c-1.4,0-2.7,0.2-4,0.4v-12.2h22l37,18.5c0.5,0.2,1,0.4,1.6,0.4h30.2c0.9,0,1.8-0.4,2.5-1l14.1-14.1
			h13.6c0.1,0,0.2,0,0.2,0v8.5C153.3,176,152,175.9,150.6,175.9z M161.7,145.7v-15.6h8v15.6H161.7z M191.9,160.8v-34.4h15.6v7.8
			c0,2,1.6,3.5,3.5,3.5c2,0,3.5-1.6,3.5-3.5v-7.8h15.6v34.4H191.9z"/>
	</g>
	<g>
	</g>
	<g>
	</g>
	<g>
	</g>
	<g>
	</g>
	<g>
	</g>
	<g>
	</g>
	<g>
	</g>
	<g>
	</g>
	<g>
	</g>
	<g>
	</g>
	<g>
	</g>
	<g>
	</g>
	<g>
	</g>
	<g>
	</g>
	<g>
	</g>
</g>
</svg>
