<?xml version="1.0" encoding="utf-8"?>
<!-- Generator: Adobe Illustrator 23.0.5, SVG Export Plug-In . SVG Version: 6.00 Build 0)  -->
<svg version="1.1" id="Layer_1" xmlns="http://www.w3.org/2000/svg" xmlns:xlink="http://www.w3.org/1999/xlink" x="0px" y="0px"
	 viewBox="0 0 325.2 325.2" enable-background="new 0 0 325.2 325.2" xml:space="preserve">
<linearGradient id="SVGID_1_" gradientUnits="userSpaceOnUse" x1="163.3646" y1="284.0632" x2="163.3646" y2="41.1789">
	<stop  offset="0" style="stop-color:#424672"/>
	<stop  offset="1" style="stop-color:#5B619E"/>
</linearGradient>
<path fill="url(#SVGID_1_)" d="M307.5,150.5l-48.4-31.1l26.5-31.9c1.4-1.6,1.8-3.8,1.3-5.9c-0.5-2.1-2-3.8-3.9-4.5l-89.2-35.5
	c-2.6-1-5.5-0.3-7.3,1.9l-23,27.9l-23-27.9c-1.8-2.2-4.7-2.9-7.3-1.9L43.8,77.1c-2,0.8-3.4,2.5-3.9,4.5c-0.5,2.1,0,4.3,1.3,5.9
	l26.5,31.9l-48.4,31.1c-2,1.3-3.2,3.6-3,6c0.1,2.4,1.6,4.5,3.7,5.6l50,24.2v52.5c0,2.6,1.5,5,3.9,6l86.4,38.7c0,0,0.1,0,0.2,0
	c0.3,0.1,0.6,0.2,1,0.3c0.1,0,0.2,0,0.3,0.1c0.4,0.1,0.8,0.1,1.2,0.1c0.4,0,0.8,0,1.2-0.1c0.1,0,0.2,0,0.3-0.1
	c0.3-0.1,0.6-0.2,0.9-0.3c0.1,0,0.1,0,0.2-0.1l88.5-38.7c2.4-1,3.9-3.4,3.9-6.1v-53l48.9-23.7c2.1-1,3.5-3.2,3.7-5.6
	C310.6,154.1,309.5,151.8,307.5,150.5z M57,86l76.4-30.4l21.6,26.2l-75.4,31.5L57,86z M36.1,155.3L75.5,130l75.1,32.9l-37.9,29.4
	L36.1,155.3z M156.4,267.3l-73.4-32.9v-41.9l27.8,13.4c0.9,0.4,1.8,0.6,2.8,0.6c1.4,0,2.8-0.5,3.9-1.3l39-30.2V267.3z M156.4,122.3
	v0.3V151l-13.3-6l-50.5-22.8H92l64.4-26.6V122.3z M193.3,55.7L269.8,86L247,113.4l-75.4-31.5L193.3,55.7z M169.3,122.5v-0.3V95.2
	l65.5,27.1h-0.7l0.7,0.3l0.1,0l-65.5,28.7V122.5z M244.9,234.4l-75.6,33.1v-93.3l40,31.1c1.1,0.9,2.5,1.3,3.9,1.3
	c0.9,0,1.9-0.2,2.8-0.6l28.8-14L244.9,234.4L244.9,234.4z M214.1,192.3l-37.9-29.4l75.1-32.9l39.3,25.3L214.1,192.3z"/>
</svg>
