<?xml version="1.0" encoding="utf-8"?>
<!-- Generator: Adobe Illustrator 24.0.1, SVG Export Plug-In . SVG Version: 6.00 Build 0)  -->
<svg version="1.1" id="Слой_1" xmlns="http://www.w3.org/2000/svg" xmlns:xlink="http://www.w3.org/1999/xlink" x="0px" y="0px"
	 viewBox="0 0 256 256" style="enable-background:new 0 0 256 256;" xml:space="preserve">
<g>
</g>
<g>
</g>
<g>
</g>
<g>
</g>
<g>
</g>
<g>
</g>
<g>
</g>
<g>
</g>
<g>
</g>
<g>
</g>
<g>
</g>
<g>
</g>
<g>
</g>
<g>
</g>
<g>
</g>
<g>
</g>
<g>
</g>
<g>
</g>
<g>
</g>
<g>
</g>
<g>
</g>
<g>
</g>
<g>
</g>
<g>
</g>
<g>
</g>
<g>
</g>
<g>
</g>
<g>
</g>
<g>
</g>
<g>
	<g>
	</g>
	<g>
	</g>
	<g>
	</g>
	<g>
	</g>
	<g>
	</g>
	<g>
	</g>
	<g>
	</g>
	<g>
	</g>
	<g>
	</g>
	<g>
	</g>
	<g>
	</g>
	<g>
	</g>
	<g>
	</g>
	<g>
	</g>
	<g>
	</g>
</g>
<g>
</g>
<g>
</g>
<g>
</g>
<g>
</g>
<g>
</g>
<g>
</g>
<g>
</g>
<g>
</g>
<g>
</g>
<g>
</g>
<g>
</g>
<g>
</g>
<g>
</g>
<g>
</g>
<g>
</g>
<g>
	<g>
		<g>
			<g>
				<linearGradient id="SVGID_1_" gradientUnits="userSpaceOnUse" x1="21.6737" y1="71.3356" x2="234.3272" y2="71.3356">
					<stop  offset="0" style="stop-color:#5B619D"/>
					<stop  offset="1" style="stop-color:#5B61A4"/>
				</linearGradient>
				<path style="fill:url(#SVGID_1_);" d="M230.8,71.3h-28.4c-2,0-3.5,1.6-3.5,3.5v17.7h-24l13.4-12.3c4.8-4.5,7.6-10.5,7.7-17.1
					c0.1-4.1-0.8-8-2.7-11.5l21.2-9c1.8-0.8,2.6-2.8,1.9-4.7c-0.8-1.8-2.8-2.6-4.7-1.9l-14.1,6l10.9-10.9c1.4-1.4,1.4-3.6,0-5
					c-1.4-1.4-3.6-1.4-5,0l-12.4,12.3l4-12.2c0.6-1.9-0.4-3.9-2.3-4.5c-1.9-0.6-3.9,0.4-4.5,2.3l-5.6,17.1
					c-3.4-1.7-7.3-2.6-11.3-2.5c-6.6,0.1-12.7,2.9-17.1,7.7l-35.7,38.8c-3.8-9.2-12.3-15.9-22.5-17.2c0.5-6.7,2.7-10.5,3.4-10.9
					c2,0,3.5-1.6,3.5-3.5c0-2-1.6-3.5-3.5-3.5c-4.1,0-6.9,3.5-8.6,8.3c-2.3-2.6-5.3-4.7-9.1-4.7c-2,0-3.5,1.6-3.5,3.5
					c0,2,1.6,3.5,3.5,3.5c2.7,0,5.6,4.5,6.9,7.4C76.1,69.7,66,79.9,64.4,92.6h-7.3V74.9c0-2-1.6-3.5-3.5-3.5H25.2
					c-2,0-3.5,1.6-3.5,3.5v21.3V121h212.7V96.1V74.9C234.3,72.9,232.7,71.3,230.8,71.3z M41.9,112.8c-1.4,1.4-3.6,1.4-5,0
					c-1.4-1.4-1.4-3.6,0-5c1.4-1.4,3.6-1.4,5,0C43.3,109.2,43.3,111.4,41.9,112.8z M112,92.6H71.6c1.7-10,10.5-17.7,21-17.7
					c10,0,18.4,7,20.6,16.4L112,92.6z M166,83c-1.4-1.4-3.6-1.4-5,0c-1.4,1.4-1.4,3.6,0,5l4,4l-0.6,0.5h-42.8l26.1-28.4l6.1,6.1
					c0.7,0.7,1.6,1,2.5,1c0.9,0,1.8-0.3,2.5-1c1.4-1.4,1.4-3.6,0-5l-6.3-6.3l7.1-7.7c3.1-3.4,7.4-5.3,12.1-5.4
					c4.6-0.1,9,1.7,12.3,4.9h0c0,0,0,0,0,0c3.3,3.3,5,7.6,4.9,12.3c-0.1,4.6-2,8.9-5.4,12.1l-13.2,12.2L166,83z M219.1,112.8
					c-1.4,1.4-3.6,1.4-5,0c-1.4-1.4-1.4-3.6,0-5c1.4-1.4,3.6-1.4,5,0C220.5,109.2,220.5,111.4,219.1,112.8z"/>
				<linearGradient id="SVGID_2_" gradientUnits="userSpaceOnUse" x1="21.6728" y1="181.2035" x2="234.3263" y2="181.2035">
					<stop  offset="0" style="stop-color:#5B619D"/>
					<stop  offset="1" style="stop-color:#5B61A4"/>
				</linearGradient>
				<path style="fill:url(#SVGID_2_);" d="M21.7,152.8c0,2,1.6,3.5,3.5,3.5h31.9v17.7c0,2,1.6,3.5,3.5,3.5h39.7l-32.1,51.3
					c-0.7,1.1-0.7,2.5-0.1,3.6c0.6,1.1,1.8,1.8,3.1,1.8h21.3c1.2,0,2.4-0.6,3-1.7l32.4-51.9l32.4,51.9c0.6,1,1.8,1.7,3,1.7h21.3
					c1.3,0,2.5-0.7,3.1-1.8c0.6-1.1,0.6-2.5-0.1-3.6l-32.1-51.3h39.7c2,0,3.5-1.6,3.5-3.5v-17.7h31.9c2,0,3.5-1.6,3.5-3.5V128H21.7
					V152.8z M214.1,136.2c1.4-1.4,3.6-1.4,5,0c1.4,1.4,1.4,3.6,0,5c-1.4,1.4-3.6,1.4-5,0C212.7,139.8,212.7,137.5,214.1,136.2z
					 M36.9,136.2c1.4-1.4,3.6-1.4,5,0c1.4,1.4,1.4,3.6,0,5c-1.4,1.4-3.6,1.4-5,0C35.5,139.8,35.5,137.5,36.9,136.2z"/>
			</g>
		</g>
	</g>
	<g>
	</g>
	<g>
	</g>
	<g>
	</g>
	<g>
	</g>
	<g>
	</g>
	<g>
	</g>
	<g>
	</g>
	<g>
	</g>
	<g>
	</g>
	<g>
	</g>
	<g>
	</g>
	<g>
	</g>
	<g>
	</g>
	<g>
	</g>
	<g>
	</g>
</g>
</svg>
