<?xml version="1.0" encoding="utf-8"?>
<!-- Generator: Adobe Illustrator 24.0.1, SVG Export Plug-In . SVG Version: 6.00 Build 0)  -->
<svg version="1.1" id="Слой_1" xmlns="http://www.w3.org/2000/svg" xmlns:xlink="http://www.w3.org/1999/xlink" x="0px" y="0px"
	 viewBox="0 0 256 256" style="enable-background:new 0 0 256 256;" xml:space="preserve">
<linearGradient id="SVGID_1_" gradientUnits="userSpaceOnUse" x1="158.5648" y1="39.2" x2="185.1648" y2="39.2" gradientTransform="matrix(1 0 0 -1 0 256)">
	<stop  offset="0" style="stop-color:#5B619D"/>
	<stop  offset="1" style="stop-color:#5B61A4"/>
</linearGradient>
<path style="fill:url(#SVGID_1_);" d="M180.5,212.2h-17.4c-2.6,0-4.6,2.1-4.6,4.6s2.1,4.6,4.6,4.6h17.4c2.6,0,4.6-2.1,4.6-4.6
	S183.1,212.2,180.5,212.2z"/>
<linearGradient id="SVGID_2_" gradientUnits="userSpaceOnUse" x1="32.5004" y1="134.7" x2="63.9611" y2="134.7" gradientTransform="matrix(1 0 0 -1 0 256)">
	<stop  offset="0" style="stop-color:#5B619D"/>
	<stop  offset="1" style="stop-color:#5B61A4"/>
</linearGradient>
<path style="fill:url(#SVGID_2_);" d="M41.8,132.7c0-2.6-2.1-4.6-4.6-4.6c-2.6,0-4.6,2.1-4.6,4.6c0,7,4.7,12.9,11.1,14.8v2.9
	c0,2.6,2.1,4.6,4.6,4.6s4.6-2.1,4.6-4.6v-2.9c6.4-2,11.1-7.9,11.1-14.8c0-7-4.7-12.9-11.1-14.8v-11.3c1.1,1.1,1.9,2.7,1.9,4.4
	c0,2.6,2.1,4.6,4.6,4.6s4.6-2.1,4.6-4.6c0-7-4.7-12.9-11.1-14.8v-4c0-2.6-2.1-4.6-4.6-4.6c-2.6,0-4.6,2.1-4.6,4.6v4
	c-6.4,2-11.1,7.9-11.1,14.8c0,6.9,4.7,12.9,11.1,14.8v11.3C42.5,135.9,41.8,134.4,41.8,132.7z M52.9,128.3c1.1,1.1,1.9,2.7,1.9,4.4
	s-0.7,3.2-1.9,4.4V128.3z M41.8,110.9c0-1.7,0.7-3.2,1.9-4.4v8.7C42.5,114.1,41.8,112.6,41.8,110.9z"/>
<linearGradient id="SVGID_3_" gradientUnits="userSpaceOnUse" x1="146.4247" y1="142.3" x2="156.7675" y2="142.3" gradientTransform="matrix(1 0 0 -1 0 256)">
	<stop  offset="0" style="stop-color:#5B619D"/>
	<stop  offset="1" style="stop-color:#5B61A4"/>
</linearGradient>
<path style="fill:url(#SVGID_3_);" d="M151.6,118.9c-2.9,0-5.2-2.3-5.2-5.2s2.3-5.2,5.2-5.2s5.2,2.3,5.2,5.2
	C156.8,116.6,154.4,118.9,151.6,118.9z"/>
<linearGradient id="SVGID_4_" gradientUnits="userSpaceOnUse" x1="112.6797" y1="142.3" x2="123.0224" y2="142.3" gradientTransform="matrix(1 0 0 -1 0 256)">
	<stop  offset="0" style="stop-color:#5B619D"/>
	<stop  offset="1" style="stop-color:#5B61A4"/>
</linearGradient>
<path style="fill:url(#SVGID_4_);" d="M117.9,118.9c-2.9,0-5.2-2.3-5.2-5.2s2.3-5.2,5.2-5.2s5.2,2.3,5.2,5.2
	C123,116.6,120.7,118.9,117.9,118.9z"/>
<linearGradient id="SVGID_5_" gradientUnits="userSpaceOnUse" x1="125.6" y1="118.75" x2="143.8954" y2="118.75" gradientTransform="matrix(1 0 0 -1 0 256)">
	<stop  offset="0" style="stop-color:#5B619D"/>
	<stop  offset="1" style="stop-color:#5B61A4"/>
</linearGradient>
<path style="fill:url(#SVGID_5_);" d="M134.7,144.1c-5,0-9.1-4.1-9.1-9.1c0-2.6,2.1-4.6,4.6-4.6h9c2.6,0,4.6,2.1,4.6,4.6
	C143.9,140,139.8,144.1,134.7,144.1z"/>
<linearGradient id="SVGID_6_" gradientUnits="userSpaceOnUse" x1="21.4" y1="128" x2="233" y2="128" gradientTransform="matrix(1 0 0 -1 0 256)">
	<stop  offset="0" style="stop-color:#5B619D"/>
	<stop  offset="1" style="stop-color:#5B61A4"/>
</linearGradient>
<path style="fill:url(#SVGID_6_);" d="M228.4,232.1h-25.7v-31.3c0-9-5.4-17.6-13.2-20.8l-3.9-1.6c6-9.3,9.2-20.2,9.2-31.3V85.7
	c0-13.5-4.7-26.6-13.4-37l1.8-17.4c0.2-1.8-0.7-3.6-2.3-4.5c-14.2-7.9-30.2-12.1-46.4-12.1h-0.1c-16,0-31.8,4.1-45.9,11.7
	c-1.6,0.9-2.6,2.7-2.4,4.5l1.8,17.8c-8.6,10.4-13.4,23.5-13.4,37v61.4c0,11.1,3.3,22,9.2,31.3l-3.9,1.6c-1.4,0.6-2.7,1.4-4,2.3V178
	c0-2.6-2.1-4.6-4.6-4.6H26c-2.6,0-4.6,2.1-4.6,4.6v28.7c0,2.6,2.1,4.6,4.6,4.6h14.8v20.8c-2.5,0.1-4.4,2.1-4.4,4.6
	c0,2.6,2.1,4.6,4.6,4.6h187.4c2.6,0,4.6-2.1,4.6-4.6S231,232.1,228.4,232.1z M66.7,232.1H50.1v-20.8h16.6V232.1z M66.7,190.9H51.1
	c-2.6,0-4.6,2.1-4.6,4.6s2.1,4.6,4.6,4.6h15.6v1.9h-36v-19.4h36.1v8.3H66.7z M134.4,23.9C134.5,23.9,134.5,23.9,134.4,23.9
	c13.7,0,27.2,3.3,39.3,9.5l-1.2,12.3H97l-1.3-12.6C107.7,27.1,121,23.9,134.4,23.9z M134.7,184.6l-15-15c0.6-1.5,0.9-3,0.9-4.7V163
	l3.5,2c3.2,2.1,6.9,3.2,10.5,3.2s7.3-1.1,10.5-3.2l3.5-2v1.9c0,1.6,0.3,3.2,0.9,4.7L134.7,184.6z M146.1,186.4l-2.1,7.1l-2.6-2.4
	L146.1,186.4z M128.1,191.1l-2.6,2.4l-2.1-7.1L128.1,191.1z M140.5,157.1c-0.1,0-0.2,0.1-0.2,0.2c-3.5,2.3-7.6,2.3-11.1,0
	c-0.1-0.1-0.2-0.1-0.3-0.2L104,142.9c-3.5-2.4-5.9-6.8-6.3-11.8V94h74v37.1c-0.4,4.9-2.9,9.4-6.4,11.8L140.5,157.1z M193.5,232.1H76
	v-31.3c0-5.2,3.2-10.5,7.5-12.3L111,177l7.7,26.3c0.5,1.5,1.7,2.7,3.2,3.2c0.4,0.1,0.8,0.2,1.2,0.2c1.2,0,2.3-0.4,3.2-1.3l8.4-7.9
	l8.4,7.9c0.9,0.8,2,1.3,3.2,1.3c0.4,0,0.8-0.1,1.2-0.2c1.6-0.4,2.8-1.6,3.2-3.2l7.7-26.3l27.5,11.5c4.3,1.8,7.5,7.1,7.5,12.3v31.3
	H193.5z"/>
</svg>
