<?xml version="1.0" encoding="utf-8"?>
<!-- Generator: Adobe Illustrator 24.0.1, SVG Export Plug-In . SVG Version: 6.00 Build 0)  -->
<svg version="1.1" id="Слой_1" xmlns="http://www.w3.org/2000/svg" xmlns:xlink="http://www.w3.org/1999/xlink" x="0px" y="0px"
	 viewBox="0 0 973 891" style="enable-background:new 0 0 973 891;" xml:space="preserve">
<g>
	
		<linearGradient id="SVGID_1_" gradientUnits="userSpaceOnUse" x1="704.0046" y1="1114.4154" x2="704.0046" y2="1672.9172" gradientTransform="matrix(0.8783 0.4563 0.3492 -0.6722 -309.8766 1107.4641)">
		<stop  offset="0" style="stop-color:#FFFFFF"/>
		<stop  offset="1" style="stop-color:#EDEDED"/>
	</linearGradient>
	<path style="fill-rule:evenodd;clip-rule:evenodd;fill:url(#SVGID_1_);" d="M705.6,207c0,0,82.1,63.3,72.1,82.7s-5.5,70.3,59.9,119
		s106.7,84.9,113,137.5c6.4,52.6,41.6,68.6,6.1,97.4c-35.5,28.8-8.2,61-85.3,31.9c-77-29.1-79.5-23.8-113.8-18.2
		s-41.1,20.2-79.2,1.5c-38.1-18.7-79.1-25.7-101.9-43.8s-42.7-43.7-51.2-48.2c-8.4-4.4-8.8-12-8.8-12L705.6,207z"/>
</g>
<g>
	
		<linearGradient id="SVGID_2_" gradientUnits="userSpaceOnUse" x1="620.6432" y1="1201.1765" x2="620.6432" y2="1535.2356" gradientTransform="matrix(0.8967 0.4659 0.3946 -0.7595 -395.2888 1262.1136)">
		<stop  offset="0" style="stop-color:#424672"/>
		<stop  offset="1" style="stop-color:#5B619E"/>
	</linearGradient>
	<path style="fill-rule:evenodd;clip-rule:evenodd;fill:url(#SVGID_2_);" d="M652.9,326c0,0,49.6,39.7,42.8,52.8
		c-6.8,13.1-5.3,46.6,34.2,77.2c39.5,30.5,64.3,53.3,67,88c2.6,34.6,24.1,44.3,1.2,64.3c-22.9,20-6.8,40.6-54.1,23.4
		c-47.3-17.2-49-13.7-70.6-9c-21.6,4.7-26.2,14.5-49.5,3.1c-23.3-11.4-48.7-14.8-62.5-26.3s-25.5-27.7-30.7-30.5
		c-5.1-2.7-5.2-7.7-5.2-7.7L652.9,326z"/>
</g>
<linearGradient id="SVGID_3_" gradientUnits="userSpaceOnUse" x1="118.2258" y1="-550.2006" x2="118.2258" y2="-1369.3657" gradientTransform="matrix(1.1691 0.3869 -0.1795 0.5425 -47.007 803.4686)">
	<stop  offset="0" style="stop-color:#FFFFFF"/>
	<stop  offset="1" style="stop-color:#F7F6F6"/>
</linearGradient>
<path style="fill:url(#SVGID_3_);" d="M550.1,177.7c0,0-139.4-56.1-221.3-32.6c0,0-59.4,5.7-130.3-1.3S47.3,171,45.4,194.5
	c-2,23.5-10,39.2,76.8,99.8s104.4,105.4,91.6,114.1c-12.7,8.7-34.1,49.1,26,88.7s57,34.6,79.8,63c22.7,28.4,107.3,68.9,107.3,68.9
	L550.1,177.7z"/>
<linearGradient id="SVGID_4_" gradientUnits="userSpaceOnUse" x1="214.652" y1="-828.8212" x2="214.652" y2="-1258.2559" gradientTransform="matrix(0.9494 0.3141 -0.3141 0.9494 -217.975 1257.9863)">
	<stop  offset="0" style="stop-color:#424672"/>
	<stop  offset="1" style="stop-color:#5B619E"/>
</linearGradient>
<path style="fill:url(#SVGID_4_);" d="M471.6,161.6c0,0-57.9-28.3-100.2,4.1c0,0-29,13.6-61.7,17.9c-32.7,4.3-75.6,45.9-80,66.6
	c-4.3,20.7-10.5,35.5,21.8,75.5s34,76.4,26.7,85.7c-7.3,9.4-23.3,47.6-0.6,73.3s21.9,21.7,28.5,43c6.6,21.3,40.8,44.1,40.8,44.1
	L471.6,161.6z"/>
</svg>
