<?xml version="1.0" encoding="utf-8"?>
<!-- Generator: Adobe Illustrator 24.0.1, SVG Export Plug-In . SVG Version: 6.00 Build 0)  -->
<svg version="1.1" id="Слой_1" xmlns="http://www.w3.org/2000/svg" xmlns:xlink="http://www.w3.org/1999/xlink" x="0px" y="0px"
	 viewBox="0 0 973 891" enable-background="new 0 0 973 891" xml:space="preserve">
<path opacity="8.000000e-02" fill="#BABABA" d="M895.1,453.9c-7.4-52.6-64.9-76.4-156.2-105.1c-91.3-28.7-96.2-80.1-81.5-103.7
	c12-19.2-61.7-48.1-89.5-58.2l0.1-0.2c0,0-96.6-104.9-176.3-108c-0.1,0-0.1,0-0.2,0c-2.6-0.7-54.6-14.7-111-44.9
	c-57.9-31-140.6-22.3-151.8,1.5c-11.3,23.8-24.5,37.4,25.2,129.5s46.6,144.6,32.1,149.4c-14.4,4.8-49.2,39.7-13.8,101
	s34.8,55.1,42.8,92.3c6.1,28.8,53.2,85.5,70.4,104.8c3.7,4.1,8.1,7.6,12.9,10.4c19.3,11,35.9,19,64.5,29.1
	c31.8,11.2,89.7,4.6,143.2,11.3c53.5,6.6,63.5-10.9,112.3-28.3c48.8-17.4,52.5-23.8,160.8-19.4c108.5,4.3,70.7-20,121.8-62
	C952.1,511.3,902.6,506.5,895.1,453.9z"/>
<linearGradient id="SVGID_1_" gradientUnits="userSpaceOnUse" x1="515.3039" y1="569.621" x2="515.3039" y2="119.8379">
	<stop  offset="0" style="stop-color:#424672"/>
	<stop  offset="1" style="stop-color:#5B619E"/>
</linearGradient>
<path fill="url(#SVGID_1_)" d="M758.6,411.1c-13.3-49.4-56.1-77-122.6-112.6c-66.6-35.7-77.8-83.6-71.3-103.9
	c5.4-17-52.2-52.3-71.4-63.5l0.3-1c0,0-2.1-0.9-5.7-2.1c-0.4-0.2-0.7-0.4-0.7-0.4l0,0.1c-15.6-5.3-56.8-16-90.6,2.6
	c-6.7,3.7-13.9,6.6-21.3,9c-11.8,3.8-29.2,8.4-47.6,10.5c-33.5,3.9-77.5,41.2-82,59.8c-4.4,18.6-10.8,31.9,22.4,67.7
	c33.1,35.9,34.9,68.5,27.4,76.9c-7.5,8.4-23.9,42.7-0.6,65.8c23.3,23.1,22.5,19.5,29.2,38.6c4.5,12.6,21.3,25.8,32.2,33.3
	c3.9,2.7,7.5,5.5,11,8.5c1.3,1.2,3.1,2.2,5.3,3c8.4,2.9,30.1,23.8,53.5,37.4c23.5,13.6,61.9,13.2,99.3,24.6
	c37.5,11.5,41.6-3.6,72.2-14.9c30.6-11.3,32.2-16.7,106.6-2s45.1-11.5,73.5-45.2C806.1,469.8,771.7,460.4,758.6,411.1z"/>
</svg>
