<?xml version="1.0" encoding="utf-8"?>
<!-- Generator: Adobe Illustrator 24.0.1, SVG Export Plug-In . SVG Version: 6.00 Build 0)  -->
<svg version="1.1" id="Слой_1" xmlns="http://www.w3.org/2000/svg" xmlns:xlink="http://www.w3.org/1999/xlink" x="0px" y="0px" viewBox="0 0 25 15" style="enable-background:new 0 0 25 15;" xml:space="preserve">
<path d="M1.3,8.6h19.3l-5.1,4.4c-0.5,0.4-0.5,1.2,0,1.6c0.3,0.2,0.6,0.3,0.9,0.3c0.3,0,0.7-0.1,0.9-0.3l7.2-6.4 c0.5-0.4,0.5-1.2,0-1.6l-7.2-6.4c-0.5-0.4-1.3-0.4-1.8,0c-0.5,0.4-0.5,1.2,0,1.6l5.1,4.4H1.3C0.6,6.4,0,6.9,0,7.5 C0,8.1,0.6,8.6,1.3,8.6z"/>
</svg>
