<?xml version="1.0" encoding="utf-8"?>
<!-- Generator: Adobe Illustrator 24.0.1, SVG Export Plug-In . SVG Version: 6.00 Build 0)  -->
<svg version="1.1" id="Слой_1" xmlns="http://www.w3.org/2000/svg" xmlns:xlink="http://www.w3.org/1999/xlink" x="0px" y="0px" viewBox="0 0 25 15" style="enable-background:new 0 0 25 15;" xml:space="preserve">
<path d="M25,7.5c0-0.6-0.6-1.1-1.3-1.1H4.4l5.1-4.4c0.5-0.4,0.5-1.2,0-1.6c-0.5-0.4-1.3-0.4-1.8,0L0.4,6.7c-0.5,0.4-0.5,1.2,0,1.6 l7.2,6.4C7.9,14.9,8.2,15,8.5,15c0.3,0,0.7-0.1,0.9-0.3c0.5-0.4,0.5-1.2,0-1.6L4.4,8.6h19.3C24.4,8.6,25,8.1,25,7.5z"/>
</svg>
